<svg width="40" height="40" viewBox="0 0 40 40" fill="none" xmlns="http://www.w3.org/2000/svg">
<g id="Avatar">
<g clip-path="url(#clip0_2508_400)">
<rect y="-0.000305176" width="40" height="40" rx="20" fill="#F8C9D2"/>
<g id="Illustration">
<g id="Group">
<path id="Vector" d="M21.7658 45.6435C20.8903 45.904 20.2291 46.0923 20.0056 46.1295C19.1413 46.2738 11.5063 45.2172 11.1701 45.4091C10.834 45.6014 3.24707 32.0119 3.24707 32.0119C3.24707 32.0119 4.44751 29.9472 5.11985 29.3446C5.27291 29.2072 5.96168 28.9848 6.94015 28.7211H6.94055C8.51883 28.296 10.8524 27.7655 12.9111 27.318C13.7401 27.1376 14.5246 26.971 15.197 26.8303C14.8103 27.7274 14.8368 29.7349 15.8345 32.5993C16.9588 35.8272 19.2435 39.6714 19.0984 42.1371L19.6582 41.9068L20.3313 41.6295C20.3313 41.6295 21.1687 43.927 21.7658 45.6435Z" fill="#F5D256" stroke="black" stroke-width="0.356161" stroke-linecap="round" stroke-linejoin="round"/>
<path id="Vector_2" d="M26.294 14.5119C26.1445 15.4259 25.0366 16.1451 24.1195 16.414C24.1195 16.414 24.4404 25.1789 25.4357 26.0363C25.4493 26.048 25.4645 26.06 25.481 26.072C25.6108 26.5364 25.6585 27.3113 25.3463 28.5654C25.3463 28.5654 23.7604 30.7023 20.9409 30.7023C18.1213 30.7023 17.3616 28.9305 17.3371 28.8752C17.3371 28.8744 17.3371 28.874 17.3371 28.874C17.0342 27.6571 17.0703 26.8914 17.1913 26.4226C17.2618 26.409 17.3111 26.3994 17.3371 26.395C17.7983 26.314 17.483 23.4359 17.372 22.5268L17.3632 22.4567C17.3624 22.4514 17.362 22.4466 17.3616 22.4414C17.3471 22.3288 17.3379 22.2615 17.3371 22.2551C16.2693 22.556 15.0949 22.6538 13.9714 22.2715C13.943 22.2619 13.9145 22.2519 13.8869 22.2411C10.788 21.0875 12.6387 16.0942 14.2936 12.7225H14.294C14.3088 12.6724 15.2684 9.49902 15.9985 8.99537C16.3823 8.73012 16.7301 8.80544 16.9749 8.93847C17.1993 9.05948 17.3371 9.22896 17.3371 9.22896C17.4225 9.08672 18.7852 8.05377 19.4992 9.22896C19.6955 9.55191 19.8117 9.8965 19.8758 10.2591C19.8979 10.3817 19.9135 10.5067 19.9247 10.6338C19.964 11.0833 19.9424 11.5573 19.9091 12.0506V12.0518C19.8145 13.4537 19.6258 15.0112 20.4668 16.5983C21.1664 17.9181 21.9261 18.3769 22.4406 18.5296C22.8124 18.6398 23.056 18.5901 23.056 18.5901C23.056 18.5901 21.5066 17.144 21.7755 14.6923C21.874 13.7943 21.9301 12.9305 21.9321 12.1347C21.9426 12.1591 22.3464 13.1388 22.6441 13.1388C22.7471 13.1388 22.8577 12.9477 23.0016 12.7041C23.2788 12.2337 23.6795 11.5665 24.3855 11.6992C24.7245 11.7629 25.0542 11.9828 25.3415 12.281C25.963 12.9248 26.3889 13.933 26.2944 14.5119H26.294Z" fill="#F3BBB0" stroke="black" stroke-width="0.356161" stroke-linecap="round" stroke-linejoin="round"/>
<path id="Vector_3" d="M15.9933 9.54028C15.9933 9.60199 15.1711 10.9339 14.2936 12.7217" stroke="black" stroke-width="0.356161" stroke-linecap="round" stroke-linejoin="round"/>
<path id="Vector_4" d="M33.7463 28.3645C31.8563 27.9137 29.3717 27.3551 27.5955 26.8527C27.5269 26.5858 27.4324 26.3791 27.319 26.2352C26.7753 25.5461 25.1181 25.4391 25.1181 25.4391C25.1181 25.4391 25.3444 25.5857 25.4807 26.0718C25.4642 26.0597 25.449 26.0477 25.4354 26.0361C24.4401 25.1786 24.1192 16.4137 24.1192 16.4137C25.0363 16.1449 26.1442 15.4257 26.2937 14.5117C26.4319 13.6651 25.4566 11.8997 24.3848 11.6989C23.3134 11.4978 22.9448 13.1386 22.6434 13.1386C22.3421 13.1386 21.9419 12.1589 21.9314 12.1345C21.9294 12.9302 21.8733 13.7941 21.7748 14.692C21.5059 17.1438 23.0553 18.5898 23.0553 18.5898C23.0553 18.5898 21.671 18.8715 20.4661 16.5981C18.9985 13.8289 20.6661 11.1504 19.4985 9.22872C18.7845 8.05353 17.4218 9.08648 17.3364 9.22872C17.3364 9.22872 17.8962 8.07837 18.401 7.46573C18.4387 7.42005 18.476 7.37718 18.5128 7.33831C18.5757 7.2718 18.6366 7.2161 18.6947 7.17443C18.9916 6.96207 19.4208 6.60667 20.0995 6.5077C20.6765 6.42315 21.4342 6.52413 22.4451 7.05663C23.1215 7.41284 23.9729 8.16131 24.8252 9.06645C25.6694 9.96317 26.5148 11.0138 27.192 11.989C28.053 13.2291 28.642 14.3474 28.6116 14.8723C28.5968 15.1252 28.5343 15.4405 28.4457 15.7939C28.0607 17.3333 27.186 19.5964 27.6492 20.5868C27.8086 20.9282 28.2093 21.3826 28.7206 21.8878C30.0324 23.1849 32.0719 24.8188 32.6372 25.7516C32.8011 26.0221 32.9514 26.3158 33.0868 26.6111C33.3857 27.2646 33.6109 27.9265 33.7463 28.3645Z" fill="#3D0027" stroke="black" stroke-width="0.356161" stroke-linecap="round" stroke-linejoin="round"/>
<path id="Vector_5" d="M33.7467 28.3635C33.8433 28.6753 33.8942 28.8728 33.8942 28.8728" stroke="black" stroke-width="0.356161" stroke-linecap="round" stroke-linejoin="round"/>
<path id="Vector_6" d="M18.6945 7.17373C18.6657 7.19457 18.636 7.21861 18.6055 7.24625C18.5979 7.25306 18.5903 7.26028 18.5823 7.26749C18.5671 7.28191 18.5519 7.29714 18.5362 7.31317C18.529 7.32038 18.5214 7.32839 18.5138 7.33641C18.5134 7.33681 18.513 7.33721 18.5126 7.33761C18.4757 7.37647 18.4385 7.41935 18.4008 7.46502C18.3852 7.48426 18.3695 7.50349 18.3535 7.52392C18.3527 7.52473 18.3519 7.52593 18.3511 7.52673C18.3391 7.54236 18.3267 7.55838 18.3143 7.57481C18.2998 7.59364 18.2854 7.61248 18.2714 7.63211C18.257 7.65134 18.2425 7.67097 18.2285 7.69101C18.2061 7.72186 18.184 7.75352 18.162 7.78557C18.1464 7.80841 18.1307 7.83165 18.1151 7.85489C18.0995 7.87853 18.0835 7.90257 18.0682 7.92661C18.0606 7.93823 18.053 7.94945 18.0458 7.96107C18.0222 7.99753 17.9985 8.03479 17.9757 8.07166C17.9456 8.11974 17.916 8.16822 17.8867 8.2167C17.8863 8.2175 17.8855 8.21871 17.8851 8.21951C17.8615 8.25837 17.8386 8.29724 17.8162 8.33571C17.7469 8.45431 17.6824 8.5701 17.6239 8.67628C17.6179 8.6871 17.6119 8.69832 17.6063 8.70874C17.587 8.744 17.5686 8.77806 17.551 8.81091C17.5417 8.82814 17.5329 8.84457 17.5245 8.8606C17.444 9.01286 17.3843 9.13106 17.3554 9.18876C17.3518 9.19557 17.349 9.20158 17.3466 9.20679C17.341 9.21801 17.3378 9.22482 17.3366 9.22722C17.3366 9.22762 17.3366 9.22802 17.3366 9.22802C17.3366 9.22802 16.7336 8.48636 15.9979 8.99443C15.2679 9.49808 14.3082 12.6715 14.2934 12.7212H14.293C12.6234 16.1237 10.7542 21.1763 13.9709 22.2706C15.0944 22.6528 16.2688 22.5551 17.3366 22.2542C17.3438 22.3063 17.8807 26.2987 17.3366 26.394C17.3105 26.3984 17.2613 26.408 17.1907 26.4217C17.325 25.902 17.5646 25.7473 17.5646 25.7473C17.5646 25.7473 15.9074 25.8539 15.3632 26.5431C15.3019 26.6204 15.2462 26.7166 15.1974 26.8304C13.3678 27.2138 10.7101 27.788 8.5789 28.3053C7.98189 28.4499 7.42574 28.5905 6.94092 28.7212C7.20978 27.2591 10.0049 23.6085 10.7037 22.289C10.7093 22.2782 10.7149 22.2674 10.7201 22.2562C11.3123 21.0337 9.81581 18.061 9.6972 16.3618C9.68038 16.1233 9.69079 15.9098 9.73807 15.7299C10.4112 13.1655 15.3312 7.56159 15.8148 7.17373C16.298 6.78627 16.7396 6.59595 17.3366 6.59595C17.7457 6.59595 18.2321 6.86761 18.4978 7.0379C18.6196 7.11643 18.6949 7.17373 18.6949 7.17373H18.6945Z" fill="#3D0027" stroke="black" stroke-width="0.356161" stroke-linecap="round" stroke-linejoin="round"/>
<path id="Vector_7" d="M23.2788 16.5214C23.5036 16.5475 23.7993 16.5082 24.1182 16.4144" stroke="black" stroke-width="0.356161" stroke-linecap="round" stroke-linejoin="round"/>
<path id="Vector_8" d="M39.8793 31.6977L39.1168 38.6399C39.1168 38.6399 30.3775 43.3936 29.3209 43.4897C28.5933 43.5558 24.8553 44.7166 22.3186 45.4791C22.3234 43.6804 22.3507 41.322 22.3507 41.322L23.5836 41.8297C23.5531 41.31 23.6304 40.7286 23.7823 40.1052C24.3505 37.7704 25.9604 34.839 26.8475 32.2919C27.7374 29.7379 27.8548 27.8651 27.5952 26.853C28.0944 26.9945 28.6502 27.1399 29.2328 27.2866C30.7221 27.6612 32.3877 28.0406 33.746 28.3648C35.0502 28.6757 36.0708 28.9354 36.3797 29.09C37.4087 29.6049 39.8793 31.6977 39.8793 31.6977Z" fill="#F5D256" stroke="black" stroke-width="0.356161" stroke-linecap="round" stroke-linejoin="round"/>
<path id="Vector_9" d="M29.2434 28.2001C29.1028 29.3845 28.7642 30.5353 28.4268 31.6792C27.3221 35.4236 26.2179 39.1684 25.1132 42.9127C25.0314 43.1912 24.8523 43.5342 24.5667 43.4845C24.3892 43.4537 24.2802 43.277 24.2044 43.1131C23.7849 42.2035 23.6912 41.171 23.7761 40.1729C23.7781 40.1504 23.7801 40.1276 23.7821 40.1052C24.3503 37.7704 25.9602 34.839 26.8473 32.2919C27.7372 29.7379 27.8546 27.8651 27.595 26.853C28.0943 26.9945 28.65 27.1399 29.2326 27.2866C29.2991 27.5795 29.2795 27.898 29.2434 28.2001Z" fill="#E0B836"/>
<path id="Vector_10" d="M15.5542 27.5725L15.5911 26.5789C15.7565 26.8986 15.7738 27.2873 15.5542 27.5725Z" fill="#E0B836"/>
<path id="Vector_11" d="M19.6579 41.9068C19.2091 42.267 18.6702 42.4809 18.1081 42.3964C17.2594 42.2686 16.64 41.4981 16.3451 40.6923C16.0502 39.8865 15.9937 39.0138 15.7689 38.1856C15.2652 36.3305 13.9534 34.8051 13.2186 33.0289C12.6091 31.5564 12.4108 29.9164 12.652 28.3413C12.7049 27.9943 12.7822 27.6437 12.9108 27.318C13.7398 27.1376 14.5244 26.971 15.1967 26.8303C14.8101 27.7274 14.8365 29.7349 15.8342 32.5993C16.9585 35.8272 19.2432 39.6714 19.0982 42.1371L19.6579 41.9068Z" fill="#E0B836"/>
<path id="Vector_12" d="M25.3456 28.5645C24.7078 31.1304 22.3506 38.8912 22.3506 41.3209C22.3506 41.3209 22.3233 43.6794 22.3185 45.478C22.1266 45.5357 21.9419 45.591 21.7656 45.6435C21.1685 43.927 20.3311 41.6295 20.3311 41.6295C20.3311 39.2001 17.9747 31.4413 17.3364 28.8742C17.3609 28.9295 18.1646 30.7013 20.9402 30.7013C23.7157 30.7013 25.3456 28.5645 25.3456 28.5645Z" fill="#BF9EF9" stroke="black" stroke-width="0.356161" stroke-linecap="round" stroke-linejoin="round"/>
<path id="Vector_13" d="M26.8479 32.2912C25.7236 35.5187 23.4389 39.3632 23.584 41.829L22.3511 41.3213C22.3511 38.8916 24.7083 31.1308 25.3462 28.5648C25.6583 27.3107 25.6106 26.5358 25.4808 26.0714C25.3446 25.5854 25.1182 25.4387 25.1182 25.4387C25.1182 25.4387 26.7754 25.5457 27.3191 26.2349C27.4325 26.3787 27.5271 26.5855 27.5956 26.8523C27.8552 27.8644 27.7378 29.7372 26.8479 32.2912Z" fill="#E86F3A" stroke="black" stroke-width="0.356161" stroke-linecap="round" stroke-linejoin="round"/>
<path id="Vector_14" d="M19.0984 42.1379C19.2435 39.6721 16.9588 35.828 15.8345 32.6001C14.8368 29.7356 14.8103 27.7282 15.197 26.8311C15.2459 26.7173 15.3016 26.6211 15.3629 26.5438C15.907 25.8546 17.5642 25.748 17.5642 25.748C17.5642 25.748 17.3246 25.9027 17.1904 26.4224C17.0694 26.8912 17.0333 27.6569 17.3362 28.8738C17.3362 28.8738 17.3362 28.8742 17.3362 28.875C17.9745 31.4421 20.3309 39.2009 20.3309 41.6303L19.098 42.1379H19.0984Z" fill="#E86F3A" stroke="black" stroke-width="0.356161" stroke-linecap="round" stroke-linejoin="round"/>
<path id="Vector_15" d="M23.4204 14.5927C23.4753 14.285 23.6388 13.9977 23.8752 13.7934C24.1116 13.589 24.4193 13.4684 24.7318 13.4584C24.9017 13.4528 25.0929 13.4913 25.1866 13.6327" stroke="black" stroke-width="0.356161" stroke-linecap="round" stroke-linejoin="round"/>
<g id="Group_2">
<path id="Vector_16" d="M16.997 27.181C16.5951 26.9835 16.067 27.0877 15.7701 27.4234" stroke="black" stroke-width="0.356161" stroke-linecap="round" stroke-linejoin="round"/>
<path id="Vector_17" d="M17.2672 28.678C16.8204 28.682 16.3985 29.0226 16.2999 29.4581" stroke="black" stroke-width="0.356161" stroke-linecap="round" stroke-linejoin="round"/>
<path id="Vector_18" d="M17.7173 30.6669C17.2741 30.5835 16.7901 30.8464 16.619 31.2639" stroke="black" stroke-width="0.356161" stroke-linecap="round" stroke-linejoin="round"/>
<path id="Vector_19" d="M18.0647 32.145C17.6195 32.097 17.1603 32.3911 17.0177 32.8154" stroke="black" stroke-width="0.356161" stroke-linecap="round" stroke-linejoin="round"/>
<path id="Vector_20" d="M18.5747 33.6401C18.4017 33.5656 18.1929 33.5812 18.033 33.6798C17.8728 33.7787 17.7654 33.9583 17.7542 34.1462" stroke="black" stroke-width="0.356161" stroke-linecap="round" stroke-linejoin="round"/>
<path id="Vector_21" d="M19.1901 35.9212C19.0739 35.8106 18.9004 35.7637 18.7446 35.8006C18.5887 35.8375 18.4545 35.9573 18.4004 36.1083" stroke="black" stroke-width="0.356161" stroke-linecap="round" stroke-linejoin="round"/>
<path id="Vector_22" d="M19.503 37.1369C19.1432 37.096 18.7669 37.2431 18.5305 37.5175" stroke="black" stroke-width="0.356161" stroke-linecap="round" stroke-linejoin="round"/>
<path id="Vector_23" d="M19.8474 38.7044C19.7 38.6755 19.5405 38.7148 19.4231 38.8089C19.3057 38.9027 19.2328 39.0498 19.2288 39.2" stroke="black" stroke-width="0.356161" stroke-linecap="round" stroke-linejoin="round"/>
<path id="Vector_24" d="M20.0167 39.9362C19.6585 39.9951 19.3628 40.322 19.3403 40.6846" stroke="black" stroke-width="0.356161" stroke-linecap="round" stroke-linejoin="round"/>
<path id="Vector_25" d="M22.7297 39.075C22.8984 39.0261 23.0968 39.1211 23.1637 39.2837" stroke="black" stroke-width="0.356161" stroke-linecap="round" stroke-linejoin="round"/>
<path id="Vector_26" d="M22.9015 37.8239C22.9916 37.6805 23.1623 37.5915 23.3314 37.6003C23.5005 37.6091 23.6616 37.7153 23.7361 37.8672" stroke="black" stroke-width="0.356161" stroke-linecap="round" stroke-linejoin="round"/>
<path id="Vector_27" d="M23.3083 36.7469C23.5115 36.6607 23.7463 36.6511 23.9559 36.7196" stroke="black" stroke-width="0.356161" stroke-linecap="round" stroke-linejoin="round"/>
<path id="Vector_28" d="M23.5778 35.4062C23.8871 35.197 24.2954 35.1417 24.6492 35.2608" stroke="black" stroke-width="0.356161" stroke-linecap="round" stroke-linejoin="round"/>
<path id="Vector_29" d="M24.0286 33.9938C24.0262 33.8996 24.0783 33.8099 24.15 33.7486C24.2218 33.6872 24.3111 33.6508 24.4009 33.6223C24.6509 33.5438 24.9186 33.5226 25.1774 33.5602" stroke="black" stroke-width="0.356161" stroke-linecap="round" stroke-linejoin="round"/>
<path id="Vector_30" d="M24.4127 32.5026C24.5453 32.2983 24.819 32.1973 25.0526 32.2666C25.2862 32.336 25.4609 32.5692 25.4609 32.8132" stroke="black" stroke-width="0.356161" stroke-linecap="round" stroke-linejoin="round"/>
<path id="Vector_31" d="M24.8293 31.084C25.0581 30.923 25.335 30.8308 25.6147 30.8228C25.6904 30.8208 25.7681 30.8252 25.8371 30.8569C25.906 30.8885 25.9633 30.9534 25.9677 31.0292" stroke="black" stroke-width="0.356161" stroke-linecap="round" stroke-linejoin="round"/>
<path id="Vector_32" d="M25.0735 29.821C25.2494 29.6003 25.5202 29.4584 25.8019 29.4388C26.0836 29.4196 26.3713 29.5233 26.5756 29.7177" stroke="black" stroke-width="0.356161" stroke-linecap="round" stroke-linejoin="round"/>
<path id="Vector_33" d="M25.4283 28.181C25.7789 27.786 26.3952 27.6549 26.8764 27.8733" stroke="black" stroke-width="0.356161" stroke-linecap="round" stroke-linejoin="round"/>
<path id="Vector_34" d="M25.6692 26.8113C25.815 26.5829 26.0751 26.4318 26.3455 26.419C26.616 26.4062 26.8897 26.5308 27.0571 26.7435" stroke="black" stroke-width="0.356161" stroke-linecap="round" stroke-linejoin="round"/>
</g>
<path id="Vector_35" d="M24.0112 13.7872C24.1607 13.7655 24.3174 13.8016 24.4424 13.8861C24.5674 13.9707 24.6595 14.1029 24.6952 14.2495" stroke="black" stroke-width="0.356161" stroke-linecap="round" stroke-linejoin="round"/>
<path id="Vector_36" d="M21.2038 20.219C21.2038 20.219 21.7491 23.5102 17.6489 24.6642L17.3608 22.4416C17.3608 22.4416 20.5318 21.159 21.2038 20.219Z" fill="#ED7D66"/>
<path id="Vector_37" d="M14.1661 15.4605C13.6043 17.4198 13.0418 19.5134 13.6372 21.4627C13.7165 21.7227 13.8163 21.9792 13.886 22.2412C10.7871 21.0877 12.6379 16.0944 14.2927 12.7226H14.2931C14.3079 12.6726 15.2676 9.49917 15.9976 8.99551C16.3814 8.73026 16.7292 8.80559 16.9741 8.93861C15.5108 10.817 14.8228 13.1706 14.1661 15.4605Z" fill="#F9DFDC"/>
<path id="Vector_38" d="M25.3405 12.2811C24.7659 12.4173 24.1905 12.5528 23.6159 12.689C23.4132 12.7371 23.1868 12.7811 23.0005 12.7042C23.2778 12.2338 23.6784 11.5667 24.3844 11.6993C24.7234 11.763 25.0532 11.983 25.3405 12.2811Z" fill="#F9DFDC"/>
<path id="Vector_39" d="M19.9237 10.6327C19.8936 10.5093 19.8584 10.363 19.8748 10.2581C19.8968 10.3807 19.9125 10.5057 19.9237 10.6327Z" fill="#F09E8B"/>
<path id="Vector_40" d="M22.44 18.5287C22.2886 18.824 21.8831 18.8849 21.5501 18.8424C20.6422 18.7274 19.8119 18.1216 19.4253 17.2922C19.0855 16.5633 19.0851 15.7179 19.2225 14.9253C19.36 14.1332 19.6272 13.3691 19.8047 12.585C19.8448 12.4087 19.8801 12.2303 19.9085 12.0508C19.814 13.4528 19.6252 15.0103 20.4663 16.5974C21.1658 17.9172 21.9255 18.376 22.44 18.5287Z" fill="#F09E8B"/>
<path id="Vector_41" d="M18.5325 7.70143C18.4932 7.61969 18.4508 7.53955 18.4015 7.46502C18.3073 7.32238 18.1891 7.20017 18.0224 7.12244C17.6758 6.96057 17.2595 7.00665 16.9113 7.16491C16.5631 7.32318 16.2715 7.58242 15.999 7.85088C13.4927 10.3191 12.1685 13.7758 9.73834 16.3193C9.72472 16.3333 9.7111 16.3477 9.69747 16.3618C9.68065 16.1233 9.69106 15.9098 9.73834 15.7299C10.4115 13.1655 15.3315 7.56159 15.8151 7.17373C16.2983 6.78627 16.7398 6.59595 17.3369 6.59595C17.746 6.59595 18.2324 6.86761 18.498 7.0379C18.5028 7.13807 18.5081 7.23784 18.5133 7.33761C18.5197 7.45942 18.5261 7.58042 18.5325 7.70143Z" fill="#6D1151"/>
<path id="Vector_42" d="M24.8257 9.06645C23.3929 8.31677 21.6696 8.08037 20.4659 7.00134C20.3125 6.8635 20.163 6.69922 20.1001 6.5077C20.6771 6.42315 21.4348 6.52413 22.4457 7.05663C23.122 7.41284 23.9735 8.16131 24.8257 9.06645Z" fill="#6D1151"/>
<path id="Vector_43" d="M28.6121 14.8723C28.5973 15.1251 28.5348 15.4405 28.4462 15.7939C28.2663 15.158 27.9722 14.5538 27.5835 14.0193C27.3579 13.7099 27.0951 13.411 26.9949 13.0416C26.9024 12.7014 26.9657 12.322 27.1632 12.0295C27.1724 12.0159 27.1821 12.0022 27.1925 11.989C28.0535 13.2291 28.6425 14.3474 28.6121 14.8723Z" fill="#6D1151"/>
<path id="Vector_44" d="M33.0879 26.6121C32.8783 26.6105 32.6619 26.52 32.4952 26.3862C32.2436 26.1838 32.0753 25.8985 31.8926 25.6325C31.2123 24.642 30.259 23.8406 29.1664 23.341C28.9524 23.2428 28.7228 23.1483 28.581 22.9607C28.3446 22.6474 28.4524 22.1774 28.7216 21.8889C30.0335 23.1859 32.0729 24.8199 32.6383 25.7527C32.8022 26.0231 32.9524 26.3168 33.0879 26.6121Z" fill="#6D1151"/>
<path id="Vector_45" d="M9.71924 26.0259C9.32497 26.7764 8.89304 27.5225 8.5789 28.3058C7.98189 28.4504 7.42574 28.5911 6.94092 28.7217C7.20978 27.2596 10.0049 23.609 10.7037 22.2896C10.7093 22.2788 10.7149 22.2679 10.7201 22.2567C10.7225 22.2743 10.7246 22.292 10.7266 22.3092C10.8644 23.605 10.3251 24.8724 9.71924 26.0259Z" fill="#6D1151"/>
<path id="Vector_46" d="M21.8198 10.319C21.7625 10.3727 21.6916 10.41 21.6135 10.418C21.3586 10.4428 21.1855 10.1672 21.1038 9.92436C21.0036 9.62666 20.9403 9.31533 20.8121 9.02844C20.6835 8.74195 20.4747 8.47229 20.1798 8.36291C19.9723 8.28598 19.7074 8.27356 19.5968 8.08123C19.5291 7.96343 19.5524 7.81638 19.6245 7.69818C20.9091 7.55193 21.575 8.61774 21.8198 10.319Z" fill="#6D1151"/>
<path id="Vector_47" d="M19.458 7.72302C19.5145 7.7126 19.5698 7.70419 19.6239 7.69818C20.9085 7.55193 21.5744 8.61774 21.8192 10.319C21.8978 10.8652 21.9326 11.4766 21.931 12.1341" stroke="black" stroke-width="0.356161" stroke-linecap="round" stroke-linejoin="round"/>
<path id="Vector_48" d="M33.7463 28.3645C31.8563 27.9138 29.3717 27.3552 27.5955 26.8528C27.5269 26.5859 27.4324 26.3792 27.319 26.2353C26.7753 25.5461 25.1181 25.4392 25.1181 25.4392C25.1181 25.4392 25.3444 25.5858 25.4807 26.0718C25.4642 26.0598 25.449 26.0478 25.4354 26.0362C24.4401 25.1787 24.1192 16.4138 24.1192 16.4138C25.0363 16.145 26.1442 15.4257 26.2937 14.5118C26.4319 13.6651 25.4566 11.8997 24.3848 11.699C23.3134 11.4979 22.9448 13.1386 22.6434 13.1386C22.3421 13.1386 21.9419 12.159 21.9314 12.1345C21.9294 12.9303 21.8733 13.7942 21.7748 14.6921C21.5059 17.1439 23.0553 18.5899 23.0553 18.5899C23.0553 18.5899 21.671 18.8716 20.4661 16.5981C18.9985 13.829 20.6661 11.1505 19.4985 9.2288C18.7845 8.0536 17.4218 9.08656 17.3364 9.2288C17.3364 9.2288 18.1446 7.56758 18.6947 7.17451C19.2445 6.78184 20.2458 5.89834 22.4451 7.05671C24.6449 8.21548 28.6901 13.5177 28.6116 14.8724C28.5327 16.2275 27.0798 19.3692 27.6492 20.5869C28.2185 21.8046 31.8515 24.4555 32.6372 25.7517C33.1641 26.6212 33.5496 27.7291 33.7463 28.3645Z" stroke="black" stroke-width="0.356161" stroke-linecap="round" stroke-linejoin="round"/>
<path id="Vector_49" d="M14.293 12.7216C12.6234 16.1237 10.7542 21.1763 13.9709 22.2706C15.0944 22.6528 16.2688 22.5551 17.3366 22.2542C17.3438 22.3063 17.8807 26.2986 17.3366 26.394C17.3105 26.3984 17.2613 26.408 17.1907 26.4217C17.325 25.902 17.5646 25.7473 17.5646 25.7473C17.5646 25.7473 15.9074 25.8539 15.3632 26.5431C15.3019 26.6204 15.2462 26.7166 15.1974 26.8304C12.855 27.3212 9.15508 28.125 6.94092 28.7212C7.20978 27.2591 10.0049 23.6085 10.7037 22.289C11.4281 20.9207 9.35142 17.2036 9.73807 15.7299C10.4112 13.1655 15.3312 7.56159 15.8148 7.17373C16.298 6.78627 16.7396 6.59595 17.3366 6.59595C17.9336 6.59595 18.6949 7.17373 18.6949 7.17373C18.1448 7.5668 17.3366 9.22802 17.3366 9.22802C17.3366 9.22802 16.7336 8.48636 15.9979 8.99443C15.2679 9.49808 14.3082 12.6715 14.2934 12.7212H14.293V12.7216Z" stroke="black" stroke-width="0.356161" stroke-linecap="round" stroke-linejoin="round"/>
<g id="Group_3">
<path id="Vector_50" d="M25.4159 18.2493L24.1129 15.4738" stroke="black" stroke-width="0.356161" stroke-linecap="round" stroke-linejoin="round"/>
<path id="Vector_51" d="M24.1137 16.0002C24.404 16.0002 24.6394 15.7648 24.6394 15.4745C24.6394 15.1842 24.404 14.9488 24.1137 14.9488C23.8234 14.9488 23.588 15.1842 23.588 15.4745C23.588 15.7648 23.8234 16.0002 24.1137 16.0002Z" fill="#E86F3A" stroke="black" stroke-width="0.356161" stroke-linecap="round" stroke-linejoin="round"/>
<path id="Vector_52" d="M25.0162 20.9818L25.2763 17.9379L27.7501 19.6985L25.0162 20.9818Z" fill="#49A2A6" stroke="black" stroke-width="0.356161" stroke-linecap="round" stroke-linejoin="round"/>
</g>
<path id="Vector_53" d="M17.3364 22.2549C19.4861 21.649 21.2034 20.219 21.2034 20.219" stroke="black" stroke-width="0.356161" stroke-linecap="round" stroke-linejoin="round"/>
<path id="Vector_54" d="M26.294 14.5119C26.1445 15.4259 25.0366 16.1451 24.1195 16.414C24.1195 16.414 24.4404 25.1789 25.4357 26.0363C25.4493 26.048 25.4645 26.06 25.481 26.072C25.6108 26.5364 25.6585 27.3113 25.3463 28.5654C25.3463 28.5654 23.7604 30.7023 20.9409 30.7023C18.1213 30.7023 17.3616 28.9305 17.3371 28.8752C17.3371 28.8744 17.3371 28.874 17.3371 28.874C17.0342 27.6571 17.0703 26.8914 17.1913 26.4226C17.2618 26.409 17.3111 26.3994 17.3371 26.395C17.7983 26.314 17.483 23.4359 17.372 22.5268L17.3632 22.4567C17.3624 22.4514 17.362 22.4466 17.3616 22.4414C17.3471 22.3288 17.3379 22.2615 17.3371 22.2551C16.2693 22.556 15.0949 22.6538 13.9714 22.2715C13.943 22.2619 13.9145 22.2519 13.8869 22.2411C10.788 21.0875 12.6387 16.0942 14.2936 12.7225H14.294C14.3088 12.6724 15.2684 9.49902 15.9985 8.99537C16.3823 8.73012 16.7301 8.80544 16.9749 8.93847C17.1993 9.05948 17.3371 9.22896 17.3371 9.22896C17.4225 9.08672 18.7852 8.05377 19.4992 9.22896C19.6955 9.55191 19.8117 9.8965 19.8758 10.2591C19.8979 10.3817 19.9135 10.5067 19.9247 10.6338C19.964 11.0833 19.9424 11.5573 19.9091 12.0506V12.0518C19.8145 13.4537 19.6258 15.0112 20.4668 16.5983C21.1664 17.9181 21.9261 18.3769 22.4406 18.5296C22.8124 18.6398 23.056 18.5901 23.056 18.5901C23.056 18.5901 21.5066 17.144 21.7755 14.6923C21.874 13.7943 21.9301 12.9305 21.9321 12.1347C21.9426 12.1591 22.3464 13.1388 22.6441 13.1388C22.7471 13.1388 22.8577 12.9477 23.0016 12.7041C23.2788 12.2337 23.6795 11.5665 24.3855 11.6992C24.7245 11.7629 25.0542 11.9828 25.3415 12.281C25.963 12.9248 26.3889 13.933 26.2944 14.5119H26.294Z" stroke="black" stroke-width="0.356161" stroke-linecap="round" stroke-linejoin="round"/>
<path id="Vector_55" d="M15.3883 14.7764C15.3883 14.7764 14.4976 16.67 14.966 16.8631C15.4348 17.0562 15.9929 16.0013 15.9929 16.0013" stroke="black" stroke-width="0.356161" stroke-linecap="round" stroke-linejoin="round"/>
<path id="Vector_56" d="M15.8765 18.7319C15.9694 18.6622 18.2261 17.1965 18.2261 17.1965C18.2261 17.1965 19.0867 18.7712 17.7609 19.4612C16.435 20.1512 15.8765 18.7319 15.8765 18.7319Z" fill="white" stroke="black" stroke-width="0.356161" stroke-linecap="round" stroke-linejoin="round"/>
</g>
<g id="Group_4">
<path id="Vector_57" d="M36.3436 25.4305C36.3436 25.4305 34.9284 27.6651 32.3921 28.7105C32.3244 28.7385 32.255 28.7661 32.1853 28.7922C32.1505 28.7056 32.1156 28.6187 32.0815 28.5325C32.0743 28.5145 32.0671 28.4969 32.0603 28.4789C31.8523 27.9596 31.6476 27.4479 31.4569 26.9727C30.9107 25.6124 30.4788 24.5538 30.4287 24.4765C30.3967 24.4272 30.2913 24.3675 30.143 24.3002C29.6129 24.0613 28.5323 23.7324 28.2602 23.4792C27.9116 23.155 26.7152 21.2482 27.1067 20.1214C27.1211 20.0806 27.1888 20.0165 27.2962 19.9387C27.3527 19.8979 27.42 19.853 27.4961 19.8061C27.517 19.7933 27.5382 19.7805 27.5603 19.7672C27.5823 19.7544 27.6047 19.7412 27.6276 19.728C27.628 19.7276 27.6276 19.7272 27.6284 19.7276C27.6284 19.7272 27.6288 19.7272 27.6292 19.7272C27.63 19.7264 27.6308 19.726 27.6316 19.726C27.6328 19.7248 27.6348 19.7236 27.6372 19.7224C27.6388 19.7212 27.6408 19.72 27.6424 19.7188C27.6464 19.7164 27.6508 19.714 27.6552 19.7115C27.6704 19.7031 27.6865 19.6939 27.7025 19.6851C27.7105 19.6803 27.7185 19.6759 27.7265 19.6715C27.7594 19.6531 27.7926 19.6346 27.8271 19.6162C27.8391 19.6102 27.8515 19.6034 27.864 19.597C27.87 19.5933 27.876 19.5901 27.8824 19.5869C27.8952 19.5801 27.908 19.5733 27.9209 19.5669C27.9397 19.5569 27.9589 19.5473 27.9786 19.5373C27.985 19.5336 27.9914 19.5304 27.9982 19.5272C28.0174 19.5176 28.0371 19.5076 28.0571 19.4976C28.0639 19.494 28.0707 19.4908 28.0771 19.4876C28.0972 19.478 28.1176 19.4679 28.138 19.4579C28.1653 19.4447 28.1925 19.4315 28.2202 19.4187C28.2342 19.4118 28.2482 19.4054 28.2622 19.399C28.3388 19.3634 28.4173 19.3281 28.497 19.2936C28.5263 19.2812 28.5551 19.2688 28.5844 19.2568C28.6818 19.2159 28.7803 19.177 28.8789 19.1406C28.9214 19.125 28.963 19.1097 29.0051 19.0949C29.0348 19.0849 29.064 19.0749 29.0937 19.0649C29.1105 19.0596 29.1269 19.054 29.1437 19.0488C29.1622 19.0428 29.181 19.0368 29.1994 19.0308C29.2371 19.0192 29.2748 19.008 29.312 18.9975C29.3168 18.9959 29.322 18.9947 29.3269 18.9935C29.3293 18.9927 29.3313 18.9919 29.3337 18.9915C29.3365 18.9903 29.3393 18.9895 29.3425 18.9887C29.3445 18.9879 29.3469 18.9875 29.3489 18.9871C29.3585 18.9843 29.3681 18.9815 29.3777 18.9791C29.4034 18.9719 29.429 18.9651 29.4543 18.9591C29.4655 18.9563 29.4771 18.9535 29.4883 18.9507C29.5016 18.9471 29.5152 18.9442 29.5284 18.941H29.5296C29.5368 18.939 29.544 18.9374 29.5512 18.9358C29.5649 18.9326 29.5785 18.9298 29.5917 18.927C29.6077 18.9234 29.6238 18.9202 29.6398 18.9174C29.6442 18.9162 29.6482 18.9154 29.6526 18.9146C29.6642 18.9122 29.6754 18.9102 29.6871 18.9082C29.6903 18.9074 29.6939 18.9066 29.6971 18.9062C29.7087 18.9042 29.7207 18.9022 29.7319 18.9002C29.7432 18.8986 29.7544 18.8966 29.7656 18.895C29.7708 18.8942 29.7756 18.8934 29.7804 18.8926C29.7852 18.8918 29.79 18.891 29.7949 18.8906C29.873 18.8797 29.9475 18.8729 30.018 18.8713C30.0317 18.8709 30.0445 18.8709 30.0581 18.8705C30.0902 18.8705 30.121 18.8713 30.1507 18.8737C30.1535 18.8741 30.1559 18.8741 30.1583 18.8741C30.1675 18.8749 30.1767 18.8757 30.1855 18.8769C30.1991 18.8781 30.2124 18.8801 30.2252 18.8821H30.2268C30.234 18.8833 30.2408 18.8841 30.2476 18.8857C30.2665 18.889 30.2849 18.8926 30.3021 18.8974C30.3137 18.9002 30.3246 18.903 30.3354 18.9066C30.3374 18.9066 30.3394 18.9074 30.3414 18.9082C30.347 18.9102 30.3526 18.9122 30.3582 18.9142C30.3634 18.9158 30.3686 18.9174 30.3734 18.9194C30.3758 18.9206 30.3782 18.9214 30.3806 18.9222C30.381 18.9222 30.3818 18.9226 30.3822 18.923C30.3887 18.9254 30.3947 18.9282 30.4007 18.931H30.4011C30.4071 18.9334 30.4135 18.9366 30.4191 18.9394C30.4207 18.9402 30.4227 18.941 30.4243 18.9422C30.4287 18.9438 30.4331 18.9462 30.4371 18.9491C30.4379 18.9491 30.4383 18.9499 30.4391 18.9503C30.4444 18.9531 30.45 18.9559 30.4548 18.9591C30.4608 18.9623 30.4664 18.9663 30.4716 18.9699C30.4744 18.9719 30.4776 18.9739 30.48 18.9759C30.482 18.9775 30.484 18.9791 30.486 18.9803C30.4868 18.9807 30.4876 18.9811 30.4884 18.9819C30.4956 18.9879 30.5029 18.9935 30.5101 18.9999H30.5105C30.5141 19.0035 30.5177 19.0068 30.5217 19.0104C30.5257 19.0144 30.5297 19.018 30.5333 19.0224C30.5341 19.0232 30.5345 19.024 30.5357 19.0248C30.5417 19.0316 30.5481 19.0388 30.5541 19.0464C30.5606 19.0544 30.5666 19.0628 30.5726 19.0713C30.5726 19.0717 30.573 19.0717 30.573 19.0721L30.5762 19.1133L30.6154 19.5982C30.6227 19.6611 30.6311 19.7212 30.6399 19.7773C30.6583 19.8951 30.68 19.996 30.704 20.0758C30.7072 20.0858 30.7104 20.0962 30.714 20.1062C30.72 20.1259 30.7268 20.1439 30.734 20.1599C30.7373 20.1683 30.7409 20.1763 30.7449 20.1832C30.7589 20.2124 30.7737 20.2348 30.7893 20.2493C30.7933 20.2529 30.7974 20.2565 30.8014 20.2589C30.8094 20.2641 30.8174 20.2677 30.8254 20.2689C30.835 20.2701 30.8446 20.2717 30.8543 20.2725C30.8727 20.2745 30.8911 20.2753 30.9091 20.2749C30.9192 20.2753 30.9292 20.2745 30.9392 20.2737C30.9504 20.2733 30.9612 20.2717 30.9721 20.2701C30.9901 20.2681 31.0069 20.2649 31.0241 20.2601C31.0281 20.2593 31.0314 20.2585 31.0354 20.2573C31.0426 20.2553 31.0502 20.2533 31.0574 20.2505C31.1079 20.2344 31.156 20.2108 31.2016 20.1807C31.2153 20.1715 31.2293 20.1615 31.2429 20.1511C31.2878 20.117 31.3303 20.077 31.3699 20.0329C31.3767 20.0261 31.3836 20.0185 31.3896 20.0109C31.4941 19.8899 31.5807 19.7416 31.65 19.5982C31.6568 19.5841 31.6632 19.5701 31.6696 19.5569C31.6756 19.5437 31.6813 19.5308 31.6869 19.518C31.6937 19.5024 31.7001 19.4872 31.7069 19.4719C31.7706 19.3229 31.8135 19.1907 31.8367 19.1137C31.8391 19.1045 31.8419 19.0961 31.8435 19.0889C31.8447 19.0845 31.8463 19.0809 31.8475 19.0769C31.8523 19.0584 31.8556 19.0468 31.8564 19.044H31.856C31.8523 19.016 31.8487 18.9879 31.8455 18.9599C31.8431 18.9414 31.8411 18.9226 31.8395 18.9038C31.8375 18.8865 31.8359 18.8689 31.8343 18.8513C31.8251 18.7515 31.8191 18.6489 31.8159 18.5456C31.8151 18.5311 31.8147 18.5175 31.8147 18.5031C31.8135 18.457 31.8127 18.4101 31.8127 18.3637C31.8131 18.3412 31.8131 18.3192 31.8135 18.2967V18.2871C31.8135 18.2783 31.8139 18.2691 31.8143 18.2603C31.8143 18.2378 31.8147 18.2154 31.8159 18.193C31.8159 18.1733 31.8167 18.1533 31.8179 18.1333C31.8195 18.0892 31.8215 18.0455 31.8243 18.0018C31.8259 17.9746 31.8275 17.9469 31.8299 17.9197C31.8303 17.9089 31.8311 17.8985 31.8319 17.8884C31.8339 17.8628 31.8359 17.8372 31.8387 17.8115C31.8411 17.7811 31.8443 17.7506 31.8479 17.7206C31.8499 17.6965 31.8527 17.6729 31.856 17.6488C31.8588 17.62 31.8628 17.5915 31.8668 17.5631C31.8752 17.5006 31.8844 17.4393 31.8948 17.3792C31.898 17.3596 31.9016 17.3399 31.9056 17.3203C31.9088 17.3007 31.9124 17.281 31.9169 17.2622C31.9197 17.2478 31.9225 17.2333 31.9257 17.2193C31.9285 17.2029 31.9321 17.1873 31.9357 17.172C31.9413 17.148 31.9465 17.1244 31.9521 17.1015C31.9521 17.0991 31.9529 17.0971 31.9537 17.0951C31.9709 17.023 31.9902 16.9553 32.0106 16.8916C32.0158 16.8755 32.021 16.8599 32.0266 16.8447C32.0335 16.823 32.0415 16.8026 32.0491 16.7826C32.0531 16.7713 32.0579 16.7597 32.0623 16.7485C32.0719 16.7245 32.0819 16.7008 32.0924 16.6788C32.096 16.6704 32.1004 16.6624 32.1044 16.654C32.1092 16.6443 32.114 16.6347 32.1188 16.6255C32.1332 16.5971 32.1489 16.571 32.1641 16.5474C32.598 15.8866 33.1982 16.1435 33.4795 16.3967C33.76 16.6495 34.8386 20.1279 34.8795 20.5105C34.9628 21.285 34.0469 22.6221 34.0469 22.6221L34.9312 23.7035L35.6051 24.5273L36.3436 25.4305Z" fill="#F3BBB0" stroke="black" stroke-width="0.356161" stroke-linecap="round" stroke-linejoin="round"/>
<path id="Vector_58" d="M39.7449 29.5894C39.4688 33.7501 33.9899 33.3366 33.9899 33.3366C33.9899 33.3366 33.6858 32.5669 33.2546 31.4814C34.3337 31.0904 35.7232 30.2469 36.6777 29.4271C37.3023 28.8902 37.8204 28.2636 38.1722 27.6661L39.7449 29.589V29.5894Z" fill="#F3BBB0" stroke="black" stroke-width="0.356161" stroke-linecap="round" stroke-linejoin="round"/>
<g id="Vector_59">
<path d="M31.8564 19.0446C31.9302 19.5775 32.1009 20.0034 32.3998 20.0927C33.1943 20.3312 33.2448 17.5092 33.2448 17.5092" fill="#FFD9D4"/>
<path d="M31.8564 19.0446C31.9302 19.5775 32.1009 20.0034 32.3998 20.0927C33.1943 20.3312 33.2448 17.5092 33.2448 17.5092" stroke="black" stroke-width="0.356161" stroke-linecap="round" stroke-linejoin="round"/>
</g>
<path id="Vector_60" d="M30.6155 19.5981C30.3839 20.4564 28.8926 21.0021 28.8926 21.0021" stroke="black" stroke-width="0.356161" stroke-linecap="round" stroke-linejoin="round"/>
<path id="Vector_61" d="M30.7015 16.8726C30.6898 16.9291 30.6782 16.9884 30.6678 17.0493C30.6678 17.0513 30.6674 17.0533 30.6674 17.0541C30.564 17.6535 30.54 18.4308 30.572 19.0715V19.0723C30.566 19.0635 30.56 19.0547 30.5536 19.0467C30.5468 19.0383 30.54 19.0303 30.5328 19.0226C30.5256 19.015 30.518 19.0078 30.5099 19.0006H30.5095C30.5019 18.9934 30.4939 18.987 30.4855 18.9806C30.4835 18.9794 30.4815 18.9778 30.4795 18.9762C30.4691 18.9689 30.4583 18.9617 30.4466 18.9549C30.4394 18.9505 30.4314 18.9461 30.4234 18.9425C30.4162 18.9385 30.4086 18.9349 30.4006 18.9313H30.4002C30.3913 18.9273 30.3821 18.9233 30.3729 18.9197C30.3681 18.9177 30.3629 18.9161 30.3577 18.9145C30.3505 18.9117 30.3429 18.9092 30.3348 18.9068C30.324 18.9032 30.3132 18.9 30.3016 18.8976C30.2964 18.896 30.2912 18.8948 30.2856 18.8936C30.2731 18.8908 30.2603 18.888 30.2471 18.886C30.2399 18.8844 30.2323 18.8832 30.2247 18.8824C30.2118 18.8804 30.1986 18.8784 30.185 18.8772C30.1734 18.876 30.1622 18.8748 30.1501 18.874C30.1145 18.8712 30.0768 18.8704 30.0375 18.8712C30.0311 18.8712 30.0243 18.8712 30.0175 18.8716C30.0031 18.8716 29.9883 18.8724 29.973 18.8732C29.9546 18.874 29.9358 18.8752 29.9165 18.8772C29.9093 18.8776 29.9021 18.8784 29.8953 18.8792C29.8809 18.8804 29.8668 18.882 29.8524 18.8836C29.8332 18.8856 29.814 18.888 29.7943 18.8908C29.7847 18.8924 29.7751 18.8936 29.7651 18.8952C29.7394 18.8992 29.713 18.9036 29.6865 18.9084C29.6709 18.9113 29.6549 18.9141 29.6393 18.9177C29.6232 18.9205 29.6072 18.9237 29.5912 18.9273C29.578 18.9301 29.5643 18.9329 29.5507 18.9361C29.5431 18.9377 29.5355 18.9397 29.5279 18.9413C29.5146 18.9445 29.501 18.9473 29.4878 18.9509C29.4766 18.9537 29.465 18.9565 29.4537 18.9593C29.4285 18.9653 29.4029 18.9722 29.3772 18.9794C29.3656 18.9826 29.3536 18.9858 29.342 18.989C29.3387 18.9898 29.3359 18.9906 29.3331 18.9918C29.3259 18.9934 29.3187 18.9954 29.3115 18.9978C29.2971 19.0018 29.2827 19.0058 29.2682 19.0102C29.2534 19.0146 29.239 19.019 29.2246 19.0234C29.2101 19.0278 29.1953 19.0323 29.1809 19.0367C29.1516 19.0459 29.1224 19.0555 29.0931 19.0651C28.924 19.1212 28.7522 19.1865 28.5839 19.257C28.5546 19.2691 28.5254 19.2815 28.4965 19.2939C28.446 19.3155 28.3955 19.338 28.3463 19.3604C28.3178 19.3732 28.2894 19.3861 28.2617 19.3993C28.1916 19.4317 28.1231 19.4646 28.0566 19.4978C28.0369 19.5075 28.0169 19.5175 27.9977 19.5275C27.9909 19.5307 27.9844 19.5339 27.978 19.5375C27.9584 19.5471 27.9392 19.5571 27.9203 19.5672C27.9071 19.574 27.8943 19.5808 27.8815 19.5876C27.8691 19.5936 27.857 19.6004 27.845 19.6068C27.8041 19.6285 27.7645 19.6501 27.726 19.6717C27.7124 19.679 27.6988 19.6866 27.6855 19.6942C27.6703 19.703 27.6551 19.7114 27.6407 19.7198C27.6126 19.7359 27.5858 19.7519 27.5597 19.7675C27.5377 19.7807 27.5165 19.7936 27.4956 19.8064C27.4956 19.8064 27.2199 19.1977 26.889 18.3743C26.2259 16.7235 25.3412 14.2109 26.0151 14.0177C26.221 13.9588 26.4795 14.1351 26.7552 14.4417C27.6643 15.4506 28.7674 17.8699 28.8399 17.9484C28.9345 18.0518 28.4436 12.867 29.6589 12.9247C30.4867 12.9639 30.6738 15.9574 30.7015 16.8726Z" fill="#F3BBB0" stroke="black" stroke-width="0.356161" stroke-linecap="round" stroke-linejoin="round"/>
<path id="Vector_62" d="M33.3251 20.9728C33.289 21.1195 33.2473 21.2673 33.166 21.3944C33.0846 21.5214 32.958 21.6271 32.809 21.65C32.6002 21.6824 32.3991 21.5498 32.2596 21.3911C32.1202 21.2325 32.0164 21.0426 31.8626 20.8979C31.7087 20.7533 31.4763 20.6595 31.2848 20.7489C31.1409 20.8162 31.0584 20.9656 30.9522 21.0838C30.6405 21.4312 30.1276 21.5009 29.6608 21.5073C29.4801 21.5097 29.2926 21.5045 29.1299 21.426C28.8991 21.3146 28.9668 21.2465 28.8915 21.0013C28.7685 20.6026 28.5782 19.9924 28.7084 19.5957C28.8386 19.1994 30.2767 19.3657 30.572 19.0712C31.0408 18.604 30.4558 17.7674 31.1045 17.636C31.5076 17.5542 31.9215 17.5426 32.3298 17.5895C32.5782 17.6179 32.8831 17.6255 33.1055 17.7534C33.3499 17.894 33.3992 18.1777 33.4381 18.4345C33.4974 18.8276 33.5206 19.2263 33.5082 19.6237C33.4941 20.0781 33.4328 20.5309 33.3251 20.9724V20.9728Z" fill="#ED7D66"/>
<path id="Vector_63" d="M30.8253 20.2684C31.5072 20.3758 31.8474 19.0764 31.8558 19.0439C31.7336 18.1584 31.8815 16.9768 32.164 16.5473C32.164 16.5473 31.7597 16.0865 31.1695 16.0957C30.9515 16.0989 30.7996 16.4155 30.7019 16.8726C30.6895 16.9291 30.6782 16.988 30.6682 17.0489C30.6682 17.0513 30.6682 17.0529 30.6674 17.0541C30.5644 17.654 30.5404 18.4317 30.5725 19.072C30.6009 19.1153 30.6209 19.1661 30.6314 19.2262C30.6546 19.3557 30.6466 19.4803 30.6145 19.5981C30.6606 19.9887 30.7339 20.254 30.8249 20.2684H30.8253Z" fill="#F3BBB0" stroke="black" stroke-width="0.356161" stroke-linecap="round" stroke-linejoin="round"/>
<g id="Vector_64">
<path d="M33.244 17.5088C33.244 17.5088 33.27 20.1633 32.5171 20.1705C31.7643 20.1777 31.6801 18.3506 31.9534 17.0957" fill="#F3BBB0"/>
<path d="M33.244 17.5088C33.244 17.5088 33.27 20.1633 32.5171 20.1705C31.7643 20.1777 31.6801 18.3506 31.9534 17.0957" stroke="black" stroke-width="0.356161" stroke-linecap="round" stroke-linejoin="round"/>
</g>
<g id="Vector_65">
<path d="M27.6279 19.7282C27.6279 19.7282 30.3277 18.2136 30.6587 19.2746C30.99 20.336 28.8929 21.0023 28.8929 21.0023" fill="#F3BBB0"/>
<path d="M27.6279 19.7282C27.6279 19.7282 30.3277 18.2136 30.6587 19.2746C30.99 20.336 28.8929 21.0023 28.8929 21.0023" stroke="black" stroke-width="0.356161" stroke-linecap="round" stroke-linejoin="round"/>
</g>
<path id="Vector_66" d="M29.6949 21.31C30.6241 20.8732 31.8182 21.0876 32.5378 21.8197" stroke="black" stroke-width="0.356161" stroke-linecap="round" stroke-linejoin="round"/>
<path id="Vector_67" d="M36.3432 25.4314L35.6047 24.5287C36.3468 24.146 36.6533 24.1516 36.7399 24.3175C36.8965 24.6156 36.3428 25.4314 36.3428 25.4314H36.3432Z" fill="black" stroke="black" stroke-width="0.356161" stroke-linecap="round" stroke-linejoin="round"/>
<path id="Vector_68" d="M32.1853 28.7928C31.9465 28.8825 31.6977 28.9623 31.4401 29.0276C30.91 29.1626 30.6343 29.1157 30.5221 28.9655C30.1659 28.4883 31.4569 26.9729 31.4569 26.9729C31.6857 27.5431 31.9353 28.1665 32.1853 28.7928Z" fill="black" stroke="black" stroke-width="0.356161" stroke-linecap="round" stroke-linejoin="round"/>
<path id="Vector_69" d="M30.5217 28.9666V28.9642" stroke="black" stroke-width="0.356161" stroke-linecap="round" stroke-linejoin="round"/>
<path id="Vector_70" d="M41.0161 33.3253C39.8726 34.4713 35.2447 35.6665 34.2683 35.1617C33.2914 34.6564 32.5986 31.6685 32.5986 31.6685C32.7974 31.6313 33.0189 31.5667 33.2553 31.4814C34.3344 31.0903 35.7239 30.2469 36.6784 29.4271C37.303 28.8902 37.8211 28.2635 38.1729 27.6661C38.3797 27.3143 38.5287 26.9729 38.6072 26.666C38.6072 26.666 39.7788 27.3468 40.7397 28.0003C41.3054 28.3853 41.7979 28.7608 41.9353 28.9828C42.3055 29.5822 42.1597 32.179 41.0161 33.3253Z" fill="#F5D256" stroke="black" stroke-width="0.356161" stroke-linecap="round" stroke-linejoin="round"/>
<path id="Vector_71" d="M40.7401 28.0007C40.456 28.6474 39.9636 29.3282 39.1101 29.7866C37.0081 30.9165 32.5986 31.6694 32.5986 31.6694C32.7974 31.6321 33.0189 31.5676 33.2553 31.4823C34.3344 31.0912 35.7239 30.2478 36.6784 29.428C37.303 28.8911 37.8211 28.2644 38.1729 27.667C38.3797 27.3152 38.5287 26.9738 38.6072 26.6669C38.6072 26.6669 39.7788 27.3476 40.7397 28.0011L40.7401 28.0007Z" fill="#E0B836"/>
<path id="Vector_72" d="M36.3435 25.4304C36.3435 25.4304 34.9283 27.665 32.392 28.7104C32.3908 28.708 32.39 28.7056 32.3888 28.7028L32.0811 28.5325L31.9785 28.4756C32.0058 28.4792 32.033 28.48 32.0595 28.4792C32.2818 28.4696 32.4814 28.3073 32.6452 28.147C33.6518 27.1577 34.3501 25.8595 34.6198 24.474C34.6559 24.2905 34.6851 24.1025 34.7669 23.9347C34.8093 23.8477 34.8646 23.7708 34.9303 23.7039L35.6043 24.5277L36.3427 25.4304H36.3435Z" fill="#F09E8B"/>
<path id="Vector_73" d="M34.0475 22.6223L35.6058 24.528L36.3442 25.4307C36.3442 25.4307 34.8517 27.7875 32.1855 28.7928C31.9355 28.1665 31.6863 27.5435 31.4571 26.9729C30.911 25.6126 30.479 24.554 30.429 24.4771" stroke="black" stroke-width="0.356161" stroke-linecap="round" stroke-linejoin="round"/>
<path id="Vector_74" d="M41.0161 33.3253C39.8726 34.4713 35.2447 35.6665 34.2683 35.1617C33.2914 34.6564 32.5986 31.6685 32.5986 31.6685C32.7974 31.6313 33.0189 31.5667 33.2553 31.4814C34.3344 31.0903 35.7239 30.2469 36.6784 29.4271C37.303 28.8902 37.8211 28.2635 38.1729 27.6661C38.3797 27.3143 38.5287 26.9729 38.6072 26.666C38.6072 26.666 41.5651 28.3837 41.9353 28.9828C42.3055 29.5822 42.1597 32.179 41.0161 33.3253Z" stroke="black" stroke-width="0.356161" stroke-linecap="round" stroke-linejoin="round"/>
<path id="Vector_75" d="M38.6076 26.6666C38.529 26.9736 38.38 27.3149 38.1732 27.6667C37.8214 28.2642 37.3034 28.8904 36.6787 29.4277C35.7243 30.2475 34.3343 31.091 33.2557 31.482C33.0193 31.5678 32.7977 31.6323 32.599 31.6692C32.3958 31.7072 32.2163 31.7176 32.0693 31.6948C31.1345 31.5481 30.5379 29.0287 30.5234 28.9658C30.6356 29.116 30.9113 29.1629 31.4414 29.0279C31.699 28.9622 31.9475 28.8828 32.1867 28.7931C34.8528 27.7878 36.3453 25.4309 36.3453 25.4309C36.3453 25.4309 36.8995 24.6152 36.7424 24.3167C36.7789 24.3343 38.3115 25.0679 38.612 25.8412C38.6973 26.0604 38.6913 26.3441 38.6084 26.6662L38.6076 26.6666Z" fill="#F5D256" stroke="black" stroke-width="0.356161" stroke-linecap="round" stroke-linejoin="round"/>
<path id="Vector_76" d="M30.1429 24.3007C29.6128 24.0619 28.5322 23.733 28.2601 23.4798C27.9115 23.1556 26.7151 21.2488 27.1066 20.122C27.121 20.0812 27.1887 20.0171 27.2961 19.9393C27.3918 20.0587 27.4728 20.1825 27.5337 20.2959C27.8943 20.9651 28.2245 21.5609 28.7317 22.1399C29.2201 22.698 29.7378 23.2542 30.0231 23.9389C30.0716 24.0551 30.1117 24.1765 30.1429 24.3007Z" fill="#F9DFDC"/>
<path id="Vector_77" d="M27.4608 18.3833C27.3514 18.5351 27.111 18.5267 26.9547 18.4242C26.9315 18.4089 26.9098 18.3925 26.889 18.3745C26.2259 16.7237 25.3412 14.211 26.0151 14.0179C26.221 13.959 26.4795 14.1353 26.7552 14.4418C26.6991 14.5323 26.6482 14.6245 26.6077 14.7191C26.3837 15.244 26.5031 15.855 26.7255 16.3807C26.9479 16.9064 27.268 17.3888 27.4604 17.9265C27.5136 18.076 27.5533 18.2547 27.4608 18.3833Z" fill="#F9DFDC"/>
<path id="Vector_78" d="M34.8786 20.5101C34.9615 21.2846 34.046 22.6217 34.046 22.6217L34.9303 23.7031L35.6042 24.5269L36.3427 25.4296C36.3427 25.4296 34.9275 27.6642 32.3912 28.7096C32.323 28.7377 32.2541 28.7653 32.184 28.7917C32.1491 28.7052 32.1147 28.6182 32.0802 28.5317C32.073 28.5141 32.0658 28.496 32.059 28.4784C31.8514 27.9591 31.6463 27.4475 31.4556 26.9718C30.9094 25.6115 30.4775 24.5529 30.4274 24.476C30.2804 24.2504 28.6071 23.8029 28.2585 23.4787C27.9099 23.1546 26.7139 21.2477 27.105 20.121C27.127 20.0585 27.2733 19.9423 27.4944 19.8057" stroke="black" stroke-width="0.356161" stroke-linecap="round" stroke-linejoin="round"/>
<path id="Vector_79" d="M27.6273 19.7278C28.5048 19.219 30.2117 18.5218 30.5728 19.0719C30.5407 18.4316 30.5647 17.6539 30.6677 17.0541C30.6677 17.0529 30.6681 17.0513 30.6681 17.0489C30.6785 16.988 30.6902 16.9291 30.7018 16.8726C30.6737 15.9574 30.4866 12.9639 29.6588 12.9247C28.4435 12.867 28.9344 18.0514 28.8398 17.9484C28.7452 17.8454 26.8989 13.7641 26.015 14.0177C25.0053 14.307 27.4955 19.8064 27.4955 19.8064C27.5368 19.7807 27.5805 19.7547 27.6265 19.7278" stroke="black" stroke-width="0.356161" stroke-linecap="round" stroke-linejoin="round"/>
</g>
</g>
</g>
</g>
<defs>
<clipPath id="clip0_2508_400">
<rect y="-0.000305176" width="40" height="40" rx="20" fill="white"/>
</clipPath>
</defs>
</svg>
