<svg width="40" height="40" viewBox="0 0 40 40" fill="none" xmlns="http://www.w3.org/2000/svg">
<g id="Avatar">
<g clip-path="url(#clip0_2423_984)">
<rect width="40" height="40" rx="20" fill="#FBDFB1"/>
<g id="Illustration">
<path id="Vector" d="M24.9352 26.0971C24.9352 26.0971 23.8826 27.6048 22.2017 29.1583C20.8042 30.4489 19.786 30.8736 19.8734 31.1525L19.6486 30.9998C19.3785 30.5831 16.9244 26.7906 16.841 26.7345C16.9821 25.4291 16.9504 22.769 16.9504 22.769C15.5236 23.2731 14.0427 23.3961 12.9396 22.515C9.1207 19.465 13.9309 11.6962 15.3445 9.5918C15.3545 9.62585 15.8421 11.257 16.4696 11.5708C17.1031 11.8873 18.1977 11.7723 18.8024 12.2042C19.4074 12.6362 19.4935 13.817 19.897 14.1628C20.3001 14.5086 21.9421 14.7966 22.1436 15.3147C22.3452 15.8332 21.9705 16.8125 22.5179 17.2737C23.0652 17.7344 23.6987 17.4175 23.9868 18.1664C24.2749 18.9152 23.3557 19.9378 23.9315 20.5713C24.5077 21.2047 24.9264 21.4163 24.8691 22.3852C24.8114 23.3544 23.9575 24.425 24.476 25.3181C24.6223 25.5702 24.7801 25.8306 24.9352 26.0971Z" fill="#CC927A" stroke="black" stroke-width="0.356161" stroke-linecap="round" stroke-linejoin="round"/>
<path id="Vector_2" d="M39.9846 31.8088C39.9537 32.1185 35.5859 39.5219 35.307 39.7386C35.1788 39.8384 32.0723 41.3358 28.7347 42.9293C27.5855 43.4778 26.4091 44.038 25.3173 44.5564C27.5154 41.2524 30.2216 36.9339 30.2216 36.6226C30.2216 36.1121 27.848 35.2694 27.7714 34.989C27.6945 34.7081 30.4512 33.1002 30.3747 32.6919C30.3538 32.5817 30.1226 32.1029 29.76 31.471C29.5136 31.0403 29.2059 30.539 28.8633 30.0341C29.4952 30.067 30.2689 30.5518 31.0426 30.5518C31.1624 30.5518 31.2982 30.5462 31.4433 30.5374C32.2378 30.4897 33.3092 30.3435 33.5769 30.4653C33.8938 30.6095 34.9597 31.7903 35.7662 31.3584C36.5724 30.9261 37.0332 30.6095 37.1197 30.3214C37.1362 30.2661 37.1253 30.1467 37.0985 29.9849C37.5176 30.0922 37.768 30.1584 37.7853 30.1672C37.8325 30.1908 38.1707 30.3916 38.5678 30.6476C39.2085 31.0603 40.0038 31.6176 39.9846 31.8088Z" fill="#F5D256" stroke="black" stroke-width="0.356161" stroke-linecap="round" stroke-linejoin="round"/>
<path id="Vector_3" d="M30.2215 36.6216C30.2215 36.8668 28.5418 39.599 26.7544 42.3629C26.2728 43.1074 25.7836 43.8543 25.3172 44.5555C24.5807 44.9053 23.8823 45.2358 23.2577 45.5307C22.4451 45.915 21.7559 46.2395 21.2659 46.4683C21.0271 46.04 20.8544 45.7078 20.8544 45.7078C20.8544 45.7078 23.9356 36.5078 25.2134 31.686C25.5259 30.506 25.7307 29.588 25.7555 29.1316C25.7719 28.8291 25.7811 28.5731 25.784 28.3567C25.8052 28.293 25.8204 28.2369 25.8292 28.1888C26.0019 29.1681 25.5411 30.2916 26.3189 30.7236C26.8365 31.0108 27.5069 30.5969 28.0843 30.2964C28.3748 30.1454 28.6416 30.0228 28.8536 30.0324C28.8568 30.0324 28.86 30.0328 28.8632 30.0332C29.2058 30.538 29.5135 31.0393 29.7599 31.47C30.1225 32.1019 30.3537 32.5807 30.3746 32.6909C30.4511 33.0992 27.6944 34.7071 27.7713 34.988C27.7846 35.0357 27.8631 35.099 27.9853 35.1743C28.5839 35.5445 30.2215 36.1977 30.2215 36.6216Z" fill="#F5D256" stroke="black" stroke-width="0.356161" stroke-linecap="round" stroke-linejoin="round"/>
<path id="Vector_4" d="M16.6511 10.9664C16.6984 11.6952 17.0638 12.3976 17.6336 12.8544C18.0098 13.1561 18.4618 13.3496 18.8529 13.6325C19.4623 14.0732 19.9087 14.734 20.0906 15.4636C20.1511 15.7072 20.1875 15.9669 20.3358 16.1696C20.5878 16.5138 21.0791 16.5847 21.3912 16.8756C22.0727 17.5099 21.5747 18.764 22.1421 19.5025C22.2867 19.6908 22.4907 19.8282 22.6257 20.0238C22.8593 20.3627 22.8453 20.8079 22.8268 21.219C22.7166 23.672 22.8396 26.3165 24.3146 28.2798C24.5634 28.6108 24.9108 28.9429 25.3235 28.9069C25.7943 28.8656 26.0796 28.3788 26.2591 27.9416C26.8913 26.4018 27.2107 24.7506 27.4014 23.097C27.5653 21.6774 27.6346 20.2225 27.2972 18.8337C26.9783 17.5211 26.3107 16.3251 25.6997 15.1206C25.184 14.1041 24.6804 13.0379 23.8165 12.2942C23.0724 11.6539 22.1256 11.3098 21.2017 10.9788C20.5197 10.7344 19.8381 10.4904 19.1562 10.2459C18.3817 9.96867 17.4441 9.71384 16.7998 10.2247" fill="#BA735A"/>
<path id="Vector_5" d="M10.6384 14.0692C10.3311 15.498 10.0887 16.95 10.0995 18.4117C10.1103 19.8734 10.3848 21.3523 11.0627 22.6473C11.3865 23.2656 11.9406 23.9059 12.6346 23.8289C13.2228 23.764 13.6379 23.1774 13.7276 22.5928C13.817 22.0079 13.6623 21.4172 13.5457 20.8375C13.4083 20.1539 13.323 19.4579 13.333 18.7611C13.3722 15.9872 14.8808 13.4858 16.0496 10.9695C16.2628 10.5103 16.4687 10.0355 16.5076 9.53104C16.5184 9.3932 16.5124 9.24295 16.4266 9.13436C16.3377 9.02177 16.185 8.9825 16.042 8.96848C15.5848 8.9224 15.1276 9.05903 14.7069 9.24375C13.5858 9.73618 12.641 10.5756 11.8933 11.5453C11.1461 12.5153 10.5847 13.6152 10.0911 14.7359" fill="#FFC7B3"/>
<path id="Vector_6" d="M19.6565 23.7491C18.9869 24.5745 18.0313 25.1639 16.9928 25.3911C16.9888 24.6406 16.9932 23.8897 17.0064 23.1392C17.0084 23.0186 17.0128 22.8916 17.0749 22.7883C17.1442 22.6737 17.2716 22.6095 17.3926 22.5526C17.9111 22.3086 18.4368 22.0802 18.9493 21.8234C19.2129 21.6912 19.4734 21.5521 19.7258 21.3995C19.9045 21.2913 20.2767 20.9107 20.4695 20.8898C20.9387 20.8389 20.5584 21.9881 20.4771 22.2357C20.2976 22.7838 20.0199 23.3003 19.6565 23.7483V23.7491Z" fill="#B27059"/>
<path id="Vector_7" d="M25.7845 28.3579C25.7829 28.4653 25.7801 28.5823 25.7753 28.7097C25.7709 28.8395 25.7645 28.9802 25.7561 29.1328C25.6286 31.4556 20.8549 45.709 20.8549 45.709H20.3228C20.3228 45.709 15.6132 32.281 15.2394 29.4113C15.2286 29.3308 15.2217 29.2587 15.2181 29.1953C15.1813 28.5238 15.1997 28.077 15.245 27.7813C15.3051 27.7701 15.3636 27.7589 15.4205 27.7477C15.4004 27.8847 15.6088 28.5883 15.9141 29.4862C16.5784 31.4416 17.7024 34.3193 17.9263 34.2848C18.0053 34.2728 18.1736 34.1153 18.3771 33.8741C19.0138 33.1176 19.9943 31.5341 19.6481 31.0004L19.8729 31.1531C19.8729 31.1531 20.8373 34.3537 21.4527 34.395C21.9231 34.4262 24.1185 31.4231 25.2135 29.5171C25.3285 29.3171 25.4311 29.1292 25.5184 28.9581C25.6395 28.7217 25.7308 28.5174 25.7845 28.3579Z" fill="#C9C4FE" stroke="black" stroke-width="0.356161" stroke-linecap="round" stroke-linejoin="round"/>
<path id="Vector_8" d="M25.775 28.7096C25.7706 28.8394 25.7642 28.9801 25.7558 29.1327C25.6284 31.4555 20.8547 45.7089 20.8547 45.7089H20.3226C20.3226 45.7089 15.613 32.2809 15.2391 29.4112C15.3261 29.2389 15.4206 29.0706 15.5224 28.9067C15.653 29.0995 15.7837 29.2926 15.9139 29.4861C16.6399 30.5655 17.3471 31.6598 17.9145 32.8294C18.0812 33.1724 18.235 33.521 18.3769 33.874C19.2307 35.996 19.6574 38.2835 19.8313 40.5694C19.8754 41.1487 19.994 41.8563 20.5426 42.0483C23.0051 38.3155 23.298 33.5566 25.2133 29.517C25.2397 29.4609 25.2666 29.4048 25.2938 29.3487C25.3595 29.2132 25.4285 29.0778 25.5182 28.958C25.5455 28.9216 25.5743 28.8863 25.606 28.8534C25.658 28.7989 25.7149 28.7513 25.775 28.7096Z" fill="#A2A0F2"/>
<path id="Vector_9" d="M20.5802 6.15646C21.612 5.60272 22.9739 5.74135 23.8726 6.49183C24.0357 6.62806 24.1871 6.78432 24.3779 6.87889C24.9332 7.15536 25.6272 6.83441 26.2126 7.03996C26.6734 7.20183 26.9831 7.7127 26.9138 8.19592C26.8741 8.47119 26.7275 8.74245 26.7904 9.01331C26.8937 9.45807 27.4671 9.58909 27.9223 9.55103C28.3775 9.51336 28.8871 9.41079 29.2505 9.68726C29.6448 9.98697 29.6512 10.5812 29.5194 11.0588C29.3872 11.536 29.1532 12.0052 29.196 12.4984C29.9045 12.8699 30.9274 12.3217 31.5092 12.8711C31.9371 13.2754 31.7965 13.9745 31.6302 14.5391C31.4639 15.1037 31.3437 15.8133 31.7913 16.1955C32.2785 16.6118 33.1103 16.3245 33.6027 16.7344C34.1368 17.1792 33.8768 18.0246 33.6676 18.6874C33.4284 19.4467 33.3183 20.2464 33.3443 21.0422C33.3511 21.2509 33.3719 21.4733 33.4998 21.6388C33.6893 21.8852 34.0495 21.9225 34.356 21.8688C34.6621 21.8151 34.959 21.6921 35.27 21.6949C36.0076 21.7017 36.5626 22.4233 36.7112 23.1457C36.8599 23.8686 36.7236 24.6158 36.7301 25.3535C36.7329 25.6977 36.8643 26.1408 37.2081 26.1509C37.3223 26.8601 36.5489 27.5669 36.8434 28.222C36.9248 28.4031 37.0774 28.5409 37.1888 28.7052C37.4549 29.0991 37.4541 29.6552 37.1864 30.0479C36.9188 30.4405 36.4011 30.6449 35.9375 30.5407" stroke="black" stroke-width="0.356161" stroke-linecap="round" stroke-linejoin="round"/>
<path id="Vector_10" d="M19.886 5.67965C20.9177 5.12591 22.2797 5.26454 23.1784 6.01502C23.3415 6.15125 23.4929 6.30752 23.6836 6.40208C24.239 6.67855 24.933 6.3576 25.5184 6.56315C25.9791 6.72503 26.2889 7.2359 26.2196 7.71912C26.1799 7.99439 26.0332 8.26565 26.0961 8.53651C26.1995 8.98126 26.7729 9.11229 27.2281 9.07422C27.6832 9.03656 28.1929 8.93398 28.5563 9.21045C28.9506 9.51016 28.957 10.1044 28.8252 10.582C28.693 11.0592 28.459 11.5284 28.5018 12.0216C29.2102 12.3931 30.2332 11.8449 30.815 12.3943C31.2429 12.7986 31.1023 13.4977 30.936 14.0623C30.7697 14.6269 30.6495 15.3365 31.097 15.7187C31.5843 16.135 32.4161 15.8477 32.9085 16.2576C33.4426 16.7024 33.1826 17.5478 32.9734 18.2106C32.7342 18.9698 32.624 19.7696 32.6501 20.5654C32.6569 20.7741 32.6777 20.9965 32.8055 21.162C32.9951 21.4084 33.3553 21.4457 33.6618 21.392C33.9679 21.3383 34.2648 21.2153 34.5758 21.2181C35.3134 21.2249 35.8684 21.9465 36.017 22.6689C36.1657 23.3918 36.0294 24.139 36.0358 24.8767C36.0386 25.2209 36.1701 25.664 36.5139 25.674C36.628 26.3833 35.8547 27.0901 36.1492 27.7452C36.2306 27.9263 36.3832 28.0641 36.4946 28.2284C36.7607 28.6223 36.7599 29.1784 36.4922 29.5711C36.2246 29.9637 35.7069 30.1681 35.2433 30.0639" stroke="black" stroke-width="0.356161" stroke-linecap="round" stroke-linejoin="round"/>
<path id="Vector_11" d="M12.057 8.06736C11.6439 7.82335 11.0866 7.97801 10.7364 8.30617C10.3862 8.63433 10.1987 9.09671 10.0388 9.54908C9.87894 10.0015 9.73029 10.4706 9.43298 10.8473C8.99063 11.407 8.26219 11.7055 7.88274 12.3102C7.34423 13.168 7.69122 14.3072 7.41355 15.2812C7.21361 15.9824 6.69593 16.5686 6.54607 17.2818C6.25037 18.6878 7.4448 20.198 6.8566 21.509C6.64103 21.9902 6.21671 22.3432 5.92942 22.7852C5.54036 23.3834 5.41976 24.1495 5.60607 24.8387C5.69342 25.1616 5.84568 25.4766 5.83286 25.8107C5.82244 26.09 5.69703 26.3509 5.57402 26.6017C5.30757 27.1462 5.04111 27.6911 4.77466 28.2357C4.66247 28.4644 4.54828 28.7041 4.54908 28.9589C4.55068 29.4113 4.90488 29.7743 5.23504 30.084C5.34884 30.191 5.46944 30.3016 5.6209 30.3408C5.80922 30.3897 6.00515 30.3184 6.18626 30.2483C6.859 29.9882 7.53175 29.7278 8.20449 29.4678" stroke="black" stroke-width="0.356161" stroke-linecap="round" stroke-linejoin="round"/>
<path id="Vector_12" d="M12.9701 6.84996C12.557 6.60594 11.9997 6.7606 11.6495 7.08876C11.2993 7.41692 11.1118 7.87931 10.9519 8.33168C10.792 8.78404 10.6434 9.25324 10.3461 9.62988C9.90371 10.1896 9.17528 10.4881 8.79583 11.0928C8.25731 11.9506 8.6043 13.0898 8.32663 14.0638C8.12669 14.765 7.60901 15.3512 7.45916 16.0644C7.16345 17.4704 8.35789 18.9806 7.76969 20.2916C7.55412 20.7728 7.1298 21.1258 6.84251 21.5678C6.45345 22.166 6.33284 22.9321 6.51916 23.6213C6.60651 23.9442 6.75877 24.2592 6.74594 24.5933C6.73553 24.8726 6.61011 25.1334 6.4871 25.3843C6.22065 25.9288 5.9542 26.4737 5.68775 27.0183C5.57555 27.247 5.46136 27.4866 5.46216 27.7415C5.46377 28.1938 5.81797 28.5569 6.14813 28.8666C6.26192 28.9736 6.38253 29.0842 6.53398 29.1234C6.7223 29.1723 6.91824 29.101 7.09935 29.0309C7.77209 28.7708 8.44483 28.5104 9.11758 28.2503" stroke="black" stroke-width="0.356161" stroke-linecap="round" stroke-linejoin="round"/>
<path id="Vector_13" d="M15.7127 9.05872C15.7127 9.05872 15.5729 9.25064 15.3441 9.59122" stroke="black" stroke-width="0.356161" stroke-linecap="round" stroke-linejoin="round"/>
<path id="Vector_14" d="M20.6685 20.7173C19.783 21.36 18.3946 22.2591 16.9506 22.7684" stroke="black" stroke-width="0.356161" stroke-linecap="round" stroke-linejoin="round"/>
<path id="Vector_15" d="M37.0995 29.9846C37.0815 29.8764 37.0566 29.749 37.0278 29.6088C36.8751 28.8647 36.6183 27.7672 36.7754 27.2968C37.0057 26.6057 37.2073 25.7414 36.4296 25.3383C35.6518 24.9352 35.508 24.6183 35.5369 23.7252C35.5589 23.0284 35.2131 22.3316 34.7587 21.6208C34.6309 21.4208 34.4947 21.2201 34.3556 21.0178C34.3148 20.9585 34.2795 20.9016 34.2479 20.8463C33.7955 20.0421 34.2971 19.6338 33.866 18.7711C33.7723 18.5836 33.65 18.4358 33.5142 18.3112C32.9821 17.8231 32.2417 17.6969 32.1956 16.9857C32.192 16.9308 32.1896 16.8739 32.1884 16.8158C32.1659 15.9287 32.351 14.7034 31.6482 14.1629C31.5693 14.102 31.4932 14.0427 31.4207 13.9834C30.8144 13.4934 30.4242 13.0526 30.191 12.3274C30.187 12.3154 30.183 12.3033 30.1793 12.2909C29.9213 11.4591 29.8917 10.7988 28.9529 10.3949C28.9489 10.3933 28.9448 10.3913 28.9408 10.3897C28.5935 10.2422 28.4115 9.97218 28.2897 9.66566C28.0778 9.13356 28.0469 8.49327 27.6446 8.20077C27.4399 8.05172 27.1959 8.01445 26.9354 8.00444C26.3897 7.9836 25.7703 8.08457 25.283 7.53844C25.1111 7.34612 24.9757 7.15219 24.8579 6.96787C24.4809 6.37967 24.2841 5.89004 23.6703 5.868C23.3854 5.85799 23.0428 5.91969 22.6926 5.98941C22.1593 6.09639 21.608 6.22261 21.2121 6.14447C21.1316 6.12845 21.0574 6.10441 20.9913 6.06955C20.3867 5.75261 20.4728 5.11913 19.6955 5.34952C19.1738 5.50418 18.8204 5.68449 18.5227 5.85638C18.3765 5.94053 18.2439 6.02267 18.1112 6.09839C18.1112 6.09839 16.8888 4.79137 16.0826 5.30024C15.276 5.8087 14.4009 6.68379 14.0728 6.75671C13.9762 6.77835 13.8131 6.78076 13.6208 6.78476C13.1604 6.79438 12.5329 6.81281 12.2501 7.12133C11.849 7.55888 11.5938 8.77294 11.1201 9.05903C10.6461 9.34512 9.33351 10.2567 9.1512 10.7307C8.96889 11.2043 9.1512 11.8241 8.89597 12.4804C8.64073 13.1368 7.83897 14.2667 7.6202 14.8865C7.40143 15.5064 8.20359 16.2721 7.98482 16.9645C7.76605 17.6572 7.10973 18.7511 7.07327 19.2616C7.06606 19.365 7.07327 19.4683 7.0893 19.5777C7.1506 20.0056 7.33531 20.5189 7.21912 21.4489C7.19227 21.6645 7.13778 21.8612 7.06646 22.0431C6.75192 22.8469 6.10522 23.363 6.01587 23.9279C5.9718 24.2076 6.09961 24.5466 6.25147 24.8968C6.47585 25.4144 6.75152 25.9574 6.59926 26.3705C6.59926 26.3705 6.58924 26.3761 6.57081 26.3873C6.40533 26.4863 5.56751 27.0083 5.46934 27.5008C5.41485 27.7724 5.65205 28.2032 5.86401 28.6355C6.03831 28.9909 6.19578 29.3471 6.16052 29.6156C8.39151 28.9745 11.6623 28.4215 13.9666 28.0133C14.1709 27.8213 14.3753 27.6554 14.5752 27.526C14.905 27.3125 15.2235 27.1971 15.5148 27.2227C15.5785 27.2067 15.6266 27.2395 15.6266 27.2395C15.8846 26.8132 16.3482 26.4037 16.8411 26.7347C16.9821 25.4293 16.9505 22.7691 16.9505 22.7691C15.5236 23.2732 14.0427 23.3962 12.9396 22.5151C11.4255 21.3059 11.268 19.3549 11.7172 17.3095C12.4007 14.1954 14.4915 10.8621 15.3445 9.59194C15.3545 9.62599 15.8422 11.2572 16.4696 11.5709C17.1031 11.8874 18.1978 11.7724 18.8024 12.2044C19.4074 12.6363 19.4936 13.8171 19.8971 14.1629C20.3002 14.5087 21.9421 14.7968 22.1437 15.3149C22.3452 15.8333 21.9706 16.8126 22.5179 17.2738C23.0653 17.7346 23.6987 17.4176 23.9868 18.1665C24.2749 18.9154 23.3557 19.9379 23.9315 20.5714C24.5077 21.2049 24.9264 21.4164 24.8691 22.3853C24.8114 23.3545 23.9576 24.4252 24.4761 25.3183C24.6223 25.5703 24.7802 25.8307 24.9352 26.0972C24.9497 26.1216 24.9641 26.1465 24.9781 26.1717C25.1476 26.4642 25.3119 26.7631 25.4525 27.0648C25.5919 27.3638 25.7081 27.6651 25.7827 27.9656C25.8015 28.0405 25.8171 28.115 25.8304 28.1896C26.003 29.1688 25.5423 30.2923 26.32 30.7243C27.0977 31.1562 28.2208 30.0042 28.8547 30.0331C28.8579 30.0331 28.8611 30.0335 28.8643 30.0339C29.4962 30.0667 30.2699 30.5516 31.0436 30.5516C31.8173 30.5516 33.2614 30.3212 33.5779 30.465C33.8949 30.6093 34.9607 31.7901 35.7672 31.3581C36.5734 30.9258 37.0342 30.6093 37.1207 30.3212C37.1372 30.2659 37.1264 30.1465 37.0995 29.9846ZM25.5519 27.2395C25.5519 27.2395 25.5972 27.181 25.6476 27.2239C25.6152 27.2275 25.5835 27.2323 25.5519 27.2395Z" fill="#3D0027" stroke="black" stroke-width="0.356161" stroke-linecap="round" stroke-linejoin="round"/>
<path id="Vector_16" d="M37.0995 29.9846C37.0815 29.8764 37.0566 29.749 37.0278 29.6088C36.8751 28.8647 36.6183 27.7672 36.7754 27.2968C37.0057 26.6057 37.2073 25.7414 36.4296 25.3383C35.6518 24.9352 35.508 24.6183 35.5369 23.7252C35.5589 23.0284 35.2131 22.3316 34.7587 21.6208C34.6309 21.4208 34.4947 21.2201 34.3556 21.0178C34.3148 20.9585 34.2795 20.9016 34.2479 20.8463C33.7955 20.0421 34.2971 19.6338 33.866 18.7711C33.7723 18.5836 33.65 18.4358 33.5142 18.3112C32.9821 17.8231 32.2417 17.6969 32.1956 16.9857C32.192 16.9308 32.1896 16.8739 32.1884 16.8158C32.1659 15.9287 32.351 14.7034 31.6482 14.1629C31.5693 14.102 31.4932 14.0427 31.4207 13.9834C30.8144 13.4934 30.4242 13.0526 30.191 12.3274C30.187 12.3154 30.183 12.3033 30.1793 12.2909C29.9213 11.4591 29.8917 10.7988 28.9529 10.3949C28.9489 10.3933 28.9448 10.3913 28.9408 10.3897C28.5935 10.2422 28.4115 9.97218 28.2897 9.66566C28.0778 9.13356 28.0469 8.49327 27.6446 8.20077C27.4399 8.05172 27.1959 8.01445 26.9354 8.00444C26.3897 7.9836 25.7703 8.08457 25.283 7.53844C25.1111 7.34612 24.9757 7.15219 24.8579 6.96787C24.4809 6.37967 24.2841 5.89004 23.6703 5.868C23.3854 5.85799 23.0428 5.91969 22.6926 5.98941C22.1593 6.09639 21.608 6.22261 21.2121 6.14447C21.1316 6.12845 21.0574 6.10441 20.9913 6.06955C20.3867 5.75261 20.4728 5.11913 19.6955 5.34952C19.1738 5.50418 18.8204 5.68449 18.5227 5.85638C18.3765 5.94053 18.2439 6.02267 18.1112 6.09839C18.1112 6.09839 16.8888 4.79137 16.0826 5.30024C15.276 5.8087 14.4009 6.68379 14.0728 6.75671C13.9762 6.77835 13.8131 6.78076 13.6208 6.78476C13.1604 6.79438 12.5329 6.81281 12.2501 7.12133C11.849 7.55888 11.5938 8.77294 11.1201 9.05903C10.6461 9.34512 9.33351 10.2567 9.1512 10.7307C8.96889 11.2043 9.1512 11.8241 8.89597 12.4804C8.64073 13.1368 7.83897 14.2667 7.6202 14.8865C7.40143 15.5064 8.20359 16.2721 7.98482 16.9645C7.76605 17.6572 7.10973 18.7511 7.07327 19.2616C7.06606 19.365 7.07327 19.4683 7.0893 19.5777C7.1506 20.0056 7.33531 20.5189 7.21912 21.4489C7.19227 21.6645 7.13778 21.8612 7.06646 22.0431C6.75192 22.8469 6.10522 23.363 6.01587 23.9279C5.9718 24.2076 6.09961 24.5466 6.25147 24.8968C6.47585 25.4144 6.75152 25.9574 6.59926 26.3705C6.59926 26.3705 6.58924 26.3761 6.57081 26.3873C6.40533 26.4863 5.56751 27.0083 5.46934 27.5008C5.41485 27.7724 5.65205 28.2032 5.86401 28.6355C6.03831 28.9909 6.19578 29.3471 6.16052 29.6156C8.39151 28.9745 11.6623 28.4215 13.9666 28.0133C14.1709 27.8213 14.3753 27.6554 14.5752 27.526C14.905 27.3125 15.2235 27.1971 15.5148 27.2227C15.5785 27.2067 15.6266 27.2395 15.6266 27.2395C15.8846 26.8132 16.3482 26.4037 16.8411 26.7347C16.9821 25.4293 16.9505 22.7691 16.9505 22.7691C15.5236 23.2732 14.0427 23.3962 12.9396 22.5151C11.4255 21.3059 11.268 19.3549 11.7172 17.3095C12.4007 14.1954 14.4915 10.8621 15.3445 9.59194C15.3497 9.60916 15.4796 10.0439 15.6891 10.5067C15.8895 10.949 16.1627 11.4178 16.4696 11.5709C16.8323 11.752 17.3459 11.7917 17.832 11.8738C18.1954 11.9347 18.5436 12.0197 18.8024 12.2044C19.1302 12.4384 19.3057 12.8923 19.4619 13.3143C19.5942 13.6709 19.7124 14.0042 19.8971 14.1629C20.2409 14.4578 21.487 14.711 21.9702 15.1005C22.0535 15.1678 22.114 15.2387 22.1437 15.3149C22.1854 15.4218 22.2026 15.5485 22.2082 15.6863C22.2298 16.2156 22.0836 16.908 22.5179 17.2738C23.0653 17.7346 23.6987 17.4176 23.9868 18.1665C24.2749 18.9154 23.3557 19.9379 23.9315 20.5714C24.5077 21.2049 24.9264 21.4164 24.8691 22.3853C24.8114 23.3545 23.9576 24.4252 24.4761 25.3183C24.6223 25.5703 24.7802 25.8307 24.9352 26.0972C24.9497 26.1216 24.9641 26.1465 24.9781 26.1717C25.1476 26.4642 25.3119 26.7631 25.4525 27.0648C25.5919 27.3638 25.7081 27.6651 25.7827 27.9656C25.7987 28.0301 25.8127 28.0942 25.8247 28.1583C25.8267 28.1687 25.8284 28.1791 25.8304 28.1896C26.003 29.1688 25.5423 30.2923 26.32 30.7243C27.0977 31.1562 28.2208 30.0042 28.8547 30.0331C28.8579 30.0331 28.8611 30.0335 28.8643 30.0339C29.4962 30.0667 30.2699 30.5516 31.0436 30.5516C31.8173 30.5516 33.2614 30.3212 33.5779 30.465C33.8949 30.6093 34.9607 31.7901 35.7672 31.3581C36.5734 30.9258 37.0342 30.6093 37.1207 30.3212C37.1372 30.2659 37.1264 30.1465 37.0995 29.9846ZM25.5519 27.2395C25.5519 27.2395 25.5972 27.181 25.6476 27.2239C25.6152 27.2275 25.5835 27.2323 25.5519 27.2395Z" fill="#3D0027" stroke="black" stroke-width="0.356161" stroke-linecap="round" stroke-linejoin="round"/>
<path id="Vector_17" d="M20.3225 45.709C20.3225 45.709 20.0957 46.1453 19.8024 46.6626C19.1221 46.4743 17.983 46.1473 16.6731 45.7667C14.3997 42.4254 10.9554 36.9741 10.9554 36.6227C10.9554 36.1122 13.329 35.2696 13.4056 34.9891C13.4821 34.7083 10.7258 33.1003 10.8023 32.692C10.8576 32.3963 12.4255 29.4581 13.9657 28.0137C14.1861 27.8069 14.4061 27.6306 14.6208 27.4972C14.9338 27.3025 15.2363 27.1987 15.514 27.2231C15.4262 27.2452 15.3084 27.3602 15.2447 27.7813C15.1994 28.077 15.181 28.5237 15.2179 29.1953C15.2944 30.5909 17.1219 36.2713 18.5683 40.5835C19.5296 43.4483 20.3225 45.709 20.3225 45.709Z" fill="#F5D256" stroke="black" stroke-width="0.356161" stroke-linecap="round" stroke-linejoin="round"/>
<path id="Vector_18" d="M15.6259 27.2391C15.5133 27.425 15.44 27.6146 15.4204 27.7468C15.3635 27.758 15.305 27.7692 15.2449 27.7805C15.3086 27.3593 15.4264 27.2443 15.5141 27.2223C15.5778 27.2063 15.6259 27.2391 15.6259 27.2391Z" stroke="black" stroke-width="0.356161" stroke-linecap="round" stroke-linejoin="round"/>
<path id="Vector_19" d="M25.6474 27.2238C25.6149 27.2274 25.5833 27.2322 25.5516 27.2395C25.5516 27.2395 25.5969 27.181 25.6474 27.2238Z" stroke="black" stroke-width="0.356161" stroke-linecap="round" stroke-linejoin="round"/>
<path id="Vector_20" d="M16.6733 45.7652C15.6352 45.4639 14.49 45.1293 13.3801 44.804C10.5521 43.975 7.95492 43.2068 7.95492 43.2068L2.10056 32.6437C2.10056 32.6437 2.03846 31.9934 3.98978 30.5064C4.39847 30.1951 5.1786 29.8962 6.15987 29.6145C8.02063 29.08 10.6046 28.6064 12.7479 28.227C13.1746 28.1516 13.5837 28.0799 13.9659 28.0122C12.4257 29.4567 10.8579 32.3949 10.8026 32.6906C10.726 33.0989 13.4823 34.7068 13.4058 34.9877C13.3293 35.2681 10.9556 36.1108 10.9556 36.6212C10.9556 36.9726 14.3999 42.4239 16.6733 45.7652Z" fill="#F5D256" stroke="black" stroke-width="0.356161" stroke-linecap="round" stroke-linejoin="round"/>
<path id="Vector_21" d="M6.57081 26.3862C6.66778 26.7757 6.73429 27.1712 6.67339 27.5642C6.60167 28.0286 6.29434 28.4886 5.86401 28.6345C5.65205 28.2021 5.41485 27.7714 5.46934 27.4997C5.56751 27.0073 6.40533 26.4852 6.57081 26.3862Z" fill="#6D1151"/>
<path id="Vector_22" d="M7.06599 22.043C7.07321 22.2818 7.05638 22.5182 6.99347 22.7486C6.84161 23.3043 6.43252 23.7655 6.29869 24.3261C6.25381 24.514 6.24139 24.7051 6.25101 24.8966C6.09915 24.5464 5.97133 24.2075 6.01541 23.9278C6.10476 23.3628 6.75146 22.8467 7.06599 22.043Z" fill="#6D1151"/>
<path id="Vector_23" d="M13.6196 6.78503C12.9292 7.55234 12.2216 8.31163 11.3858 8.91506C10.9054 9.26164 10.3697 9.57017 10.0527 10.0702C9.59316 10.7959 9.70175 11.7475 9.37319 12.5412C9.0282 13.375 8.21001 14.0213 8.14069 14.9209C8.07658 15.7487 8.68442 16.538 8.54658 17.3566C8.39753 18.2393 7.45993 18.7694 7.0881 19.578C7.07248 19.4686 7.06486 19.3652 7.07207 19.2618C7.10854 18.7514 7.76485 17.6575 7.98362 16.9647C8.2024 16.2724 7.40023 15.5067 7.619 14.8868C7.83778 14.267 8.63954 13.137 8.89477 12.4807C9.15001 11.8244 8.9677 11.2045 9.15001 10.7309C9.33232 10.2569 10.6449 9.34539 11.119 9.0593C11.5926 8.77321 11.8478 7.55915 12.2489 7.12161C12.5318 6.81308 13.1592 6.79465 13.6196 6.78503Z" fill="#6D1151"/>
<path id="Vector_24" d="M18.5679 40.5835C18.4797 40.7045 18.3287 40.7862 18.1864 40.7457C18.0634 40.7109 17.9813 40.5979 17.9095 40.4921C15.8376 37.4249 14.6019 33.7991 14.3699 30.1052C14.315 29.3031 14.3142 28.4697 14.5546 27.6947C14.5751 27.6286 14.5971 27.5629 14.6203 27.4972C14.9333 27.3025 15.2358 27.1987 15.5135 27.2231C15.4257 27.2452 15.3079 27.3602 15.2442 27.7813C15.1989 28.077 15.1805 28.5237 15.2174 29.1953C15.2939 30.5909 17.1214 36.2713 18.5679 40.5835Z" fill="#FFE8A9"/>
<path id="Vector_25" d="M17.9263 34.2844C17.5993 34.3345 15.3563 28.1832 15.4204 27.7473C15.44 27.6151 15.5134 27.4255 15.626 27.2396C15.8732 26.8313 16.3091 26.4383 16.7787 26.6971C16.7992 26.7083 16.82 26.7207 16.8404 26.7348C16.917 26.7865 18.9985 29.9975 19.543 30.8377C19.5903 30.9111 19.6264 30.9664 19.648 31C20.1044 31.704 18.2536 34.2339 17.9263 34.2844Z" fill="#49A2A6" stroke="black" stroke-width="0.356161" stroke-linecap="round" stroke-linejoin="round"/>
<path id="Vector_26" d="M25.7842 28.358C25.323 29.7327 22.0406 34.4347 21.4524 34.3955C21.1215 34.3734 20.6891 33.4366 20.361 32.576C20.0785 31.8367 19.8725 31.1535 19.8725 31.1535C19.7852 30.8747 20.8033 30.4499 22.2009 29.1593C22.6921 28.7054 23.1297 28.255 23.5031 27.8455C24.407 26.8534 24.9343 26.0981 24.9343 26.0981C24.9488 26.1226 24.9632 26.1474 24.9772 26.1727C25.3322 26.8013 25.6656 27.7181 25.7838 28.0575C25.7854 28.1484 25.7854 28.2478 25.7842 28.358Z" fill="#49A2A6" stroke="black" stroke-width="0.356161" stroke-linecap="round" stroke-linejoin="round"/>
<path id="Vector_27" d="M25.7848 28.3563C25.786 28.2461 25.786 28.1467 25.7844 28.0562C25.8141 28.1403 25.8301 28.1888 25.8301 28.1888C25.8213 28.2369 25.8061 28.293 25.7848 28.3563Z" stroke="black" stroke-width="0.356161" stroke-linecap="round" stroke-linejoin="round"/>
<path id="Vector_28" d="M15.6261 27.2391C15.5892 27.2311 15.5519 27.2255 15.5143 27.2223C15.578 27.2063 15.6261 27.2391 15.6261 27.2391Z" stroke="black" stroke-width="0.356161" stroke-linecap="round" stroke-linejoin="round"/>
<path id="Vector_29" d="M25.6474 27.2238C25.6149 27.2274 25.5833 27.2322 25.5516 27.2395C25.5516 27.2395 25.5969 27.181 25.6474 27.2238Z" stroke="black" stroke-width="0.356161" stroke-linecap="round" stroke-linejoin="round"/>
<path id="Vector_30" d="M25.7835 28.3573C25.7847 28.2471 25.7847 28.1477 25.7831 28.0572C25.7831 28.0251 25.7819 27.9951 25.7811 27.9658C25.8 28.0407 25.8156 28.1153 25.8288 28.1898C25.82 28.2379 25.8048 28.294 25.7835 28.3573Z" stroke="black" stroke-width="0.356161" stroke-linecap="round" stroke-linejoin="round"/>
<path id="Vector_31" d="M14.8729 15.1118C14.8729 15.1118 13.85 17.0908 14.2034 17.3697C14.5568 17.6485 15.4495 16.6444 15.4495 16.6444" stroke="black" stroke-width="0.356161" stroke-linecap="round" stroke-linejoin="round"/>
<g id="Group">
<path id="Vector_32" d="M16.825 19.8832C16.0324 20.3785 15.2014 19.527 15.2014 19.527C15.2014 19.527 15.891 19.5306 16.5281 19.1139C17.1652 18.6972 17.3731 18.2396 17.3731 18.2396C17.3731 18.2396 17.6171 19.3884 16.825 19.8832Z" fill="#E938B5" stroke="black" stroke-width="0.356161" stroke-linecap="round" stroke-linejoin="round"/>
<path id="Vector_33" d="M17.3731 18.2394C17.3731 18.2394 17.1652 18.697 16.5281 19.1137C15.891 19.5304 15.2014 19.5268 15.2014 19.5268C15.2014 19.5268 15.5692 18.6497 15.7812 18.6922C15.9936 18.7347 16.1066 18.8589 16.1915 18.6906C16.2764 18.5227 16.1775 18.3528 16.3894 18.2394C16.6018 18.1264 17.3731 18.2394 17.3731 18.2394Z" fill="#E938B5" stroke="black" stroke-width="0.356161" stroke-linecap="round" stroke-linejoin="round"/>
<path id="Vector_34" d="M17.5822 17.6326L17.3727 18.2404" stroke="black" stroke-width="0.356161" stroke-linecap="round" stroke-linejoin="round"/>
<path id="Vector_35" d="M17.1765 17.5255C17.2871 17.4898 17.4101 17.5122 17.5151 17.5627C17.6201 17.6132 17.7098 17.6897 17.7976 17.7659C17.8489 17.8103 17.9033 17.8612 17.9138 17.9281" stroke="black" stroke-width="0.356161" stroke-linecap="round" stroke-linejoin="round"/>
</g>
<path id="Vector_36" d="M38.5674 30.6474C37.9223 31.512 37.002 32.174 35.9758 32.5157C34.8535 32.8896 33.619 32.8864 32.4835 32.5522C32.2146 32.4733 31.9514 32.3759 31.6966 32.2605C31.0599 31.9724 30.438 31.5689 29.7597 31.4708C29.6491 31.4547 29.5369 31.4467 29.4231 31.4487C28.673 31.4619 28.0067 31.9059 27.3989 32.3458C27.0723 32.5822 26.6908 32.8335 26.3058 32.8194C26.2357 32.8166 26.166 32.8054 26.0958 32.7834C25.732 32.6696 25.5104 32.3082 25.343 31.9656C25.2981 31.8738 25.2548 31.7809 25.2131 31.6867C25.5257 30.5067 25.7304 29.5888 25.7553 29.1324C25.7717 28.8299 25.7809 28.5738 25.7837 28.3575C25.8049 28.2938 25.8202 28.2377 25.829 28.1896C26.0017 29.1688 25.5409 30.2924 26.3186 30.7243C26.8363 31.0116 27.5066 30.5977 28.084 30.2972C28.3745 30.1461 28.6414 30.0235 28.8533 30.0331C28.8565 30.0331 28.8597 30.0335 28.8629 30.0339C29.4948 30.0668 30.2685 30.5516 31.0422 30.5516C31.162 30.5516 31.2979 30.546 31.4429 30.5372C32.2375 30.4895 33.3089 30.3432 33.5766 30.465C33.8935 30.6093 34.9593 31.7901 35.7659 31.3582C36.572 30.9258 37.0328 30.6093 37.1194 30.3212C37.1358 30.2659 37.125 30.1465 37.0981 29.9846C37.5173 30.092 37.7677 30.1581 37.7849 30.1669C37.8322 30.1906 38.1704 30.3913 38.5674 30.6474Z" fill="#E0B836"/>
<path id="Vector_37" d="M32.5407 33.4191C32.4658 33.5906 32.2971 33.6992 32.1377 33.7977C31.3988 34.2525 30.6603 34.7077 29.9219 35.1625C30.4728 35.5275 31.3207 35.505 31.6232 36.0928C31.7718 36.3813 31.7278 36.7283 31.6624 37.0465C31.2161 39.2113 29.9916 41.0837 28.7347 42.9297C27.5855 43.4782 26.4091 44.0384 25.3173 44.5568C27.5154 41.2528 30.2216 36.9343 30.2216 36.6229C30.2216 36.1125 27.848 35.2698 27.7714 34.9894C27.6945 34.7085 30.4512 33.1006 30.3747 32.6923C30.3538 32.5821 30.1226 32.1033 29.76 31.4714C29.5136 31.0407 29.2059 30.5394 28.8633 30.0345C29.4952 30.0674 30.2689 30.5522 31.0426 30.5522C31.1624 30.5522 31.2982 30.5466 31.4433 30.5378C31.8904 31.1645 32.2915 31.8256 32.4838 32.5528C32.5203 32.6911 32.5492 32.8313 32.5696 32.9743C32.5908 33.1234 32.6008 33.2809 32.5407 33.4191Z" fill="#E0B836"/>
<path id="Vector_38" d="M30.2218 36.6226C30.2218 36.8678 28.5422 39.6 26.7547 42.3639C26.4827 42.4396 26.1958 42.4533 25.9293 42.3659C26.1345 41.496 26.6441 40.7291 27.2067 40.0348C27.7692 39.3404 28.3955 38.6949 28.8936 37.9528C29.0578 37.7084 29.2133 37.4159 29.1328 37.133C29.0302 36.7728 28.6139 36.6234 28.2597 36.5019C27.9051 36.3809 27.5 36.1554 27.4952 35.7811C27.4916 35.5026 27.7216 35.2903 27.9856 35.1753C28.5842 35.5455 30.2218 36.1986 30.2218 36.6226Z" fill="#FFE8A9"/>
<path id="Vector_39" d="M16.6734 45.7652C15.6352 45.4639 14.4901 45.1293 13.3802 44.804C12.8801 44.0919 12.4049 43.3615 11.9309 42.6323C11.3014 41.6646 10.6724 40.697 10.0429 39.7293C9.8105 39.3723 9.5753 39.0085 9.45149 38.6006C9.25315 37.9483 9.36213 37.2279 9.65463 36.612C9.94713 35.9962 10.4123 35.4761 10.9272 35.0293C11.0141 34.9544 11.1079 34.8719 11.1299 34.7593C11.1752 34.5297 10.9148 34.3714 10.7044 34.268C9.91588 33.8806 9.25676 33.2351 8.85327 32.455C8.77994 32.3131 8.71343 32.1581 8.72946 31.9994C8.74869 31.8107 8.88012 31.6548 9.00793 31.5142C9.61256 30.8478 10.2665 30.2268 10.9621 29.6562C11.5519 29.1726 12.1573 28.7102 12.7479 28.227C13.1746 28.1516 13.5837 28.0799 13.966 28.0122C12.4257 29.4567 10.8579 32.3949 10.8026 32.6906C10.7261 33.0989 13.4823 34.7068 13.4058 34.9877C13.3293 35.2681 10.9556 36.1108 10.9556 36.6212C10.9556 36.9726 14.3999 42.4239 16.6734 45.7652Z" fill="#E0B836"/>
<path id="Vector_40" d="M19.543 30.8378C19.5122 31.0942 19.4629 31.3491 19.3683 31.5887C19.3218 31.7061 19.2609 31.8239 19.1592 31.8988C18.9248 32.0715 18.5718 31.9377 18.3971 31.7049C18.2224 31.4717 18.1719 31.1724 18.0958 30.8915C17.9098 30.2031 17.5492 29.5776 17.2403 28.9349C16.9638 28.36 16.5615 27.5286 16.7138 26.8702C16.7286 26.8065 16.7503 26.7488 16.7787 26.6971C16.7991 26.7084 16.82 26.7208 16.8404 26.7348C16.9169 26.7865 18.9985 29.9976 19.543 30.8378Z" fill="#63BABA"/>
<path id="Vector_41" d="M39.9846 31.8088C39.9537 32.1185 35.5859 39.5219 35.307 39.7386C35.1347 39.8729 29.5801 42.5326 25.3173 44.5564C27.5154 41.2524 30.2216 36.9339 30.2216 36.6226C30.2216 36.1121 27.848 35.2694 27.7714 34.989C27.6945 34.7081 30.4512 33.1002 30.3747 32.6919C30.3398 32.5064 29.7091 31.2795 28.8633 30.0341C29.4952 30.067 30.2689 30.5518 31.0426 30.5518C31.8163 30.5518 33.2604 30.3214 33.5769 30.4653C33.8938 30.6095 34.9597 31.7903 35.7662 31.3584C36.5724 30.9261 37.0332 30.6095 37.1197 30.3214C37.1362 30.2661 37.1253 30.1467 37.0985 29.9849C37.5176 30.0922 37.768 30.1584 37.7853 30.1672C37.9091 30.2289 40.0154 31.499 39.9846 31.8088Z" stroke="black" stroke-width="0.356161" stroke-linecap="round" stroke-linejoin="round"/>
<path id="Vector_42" d="M30.2215 36.6216C30.2215 36.9329 27.5153 41.2515 25.3172 44.5555C23.6231 45.3596 22.1329 46.0632 21.2659 46.4683C21.0271 46.04 20.8544 45.7078 20.8544 45.7078C20.8544 45.7078 25.6281 31.4544 25.7555 29.1316C25.7719 28.8291 25.7811 28.5731 25.784 28.3567C25.8052 28.293 25.8204 28.2369 25.8292 28.1888C26.0019 29.1681 25.5411 30.2916 26.3189 30.7236C27.0966 31.1555 28.2197 30.0035 28.8536 30.0324C28.8568 30.0324 28.86 30.0328 28.8632 30.0332C29.709 31.2785 30.3397 32.5054 30.3746 32.6909C30.4511 33.0992 27.6944 34.7071 27.7713 34.988C27.8479 35.2685 30.2215 36.1111 30.2215 36.6216Z" stroke="black" stroke-width="0.356161" stroke-linecap="round" stroke-linejoin="round"/>
<path id="Vector_43" d="M20.3225 45.709C20.3225 45.709 20.0957 46.1453 19.8024 46.6626C19.1221 46.4743 17.983 46.1473 16.6731 45.7667C14.3997 42.4254 10.9554 36.9741 10.9554 36.6227C10.9554 36.1123 13.329 35.2696 13.4056 34.9891C13.4821 34.7083 10.7258 33.1003 10.8023 32.692C10.8576 32.3963 12.4255 29.4581 13.9657 28.0137C14.5074 27.5052 15.046 27.1819 15.514 27.2231C15.4262 27.2452 15.3084 27.3602 15.2447 27.7813C15.1994 28.077 15.181 28.5238 15.2179 29.1953C15.3453 31.518 20.3225 45.709 20.3225 45.709Z" stroke="black" stroke-width="0.356161" stroke-linecap="round" stroke-linejoin="round"/>
<path id="Vector_44" d="M16.6733 45.7652C12.9899 44.6958 7.95492 43.2068 7.95492 43.2068L2.10056 32.6437C2.10056 32.6437 2.03846 31.9934 3.98978 30.5064C4.39847 30.1951 5.1786 29.8962 6.15987 29.6145C8.39086 28.9734 11.6616 28.4205 13.9659 28.0122C12.4257 29.4567 10.8579 32.3949 10.8026 32.6906C10.726 33.0989 13.4823 34.7068 13.4058 34.9877C13.3293 35.2681 10.9556 36.1108 10.9556 36.6212C10.9556 36.9726 14.3999 42.4239 16.6733 45.7652Z" stroke="black" stroke-width="0.356161" stroke-linecap="round" stroke-linejoin="round"/>
<path id="Vector_45" d="M23.667 28.1867C23.6145 28.7248 23.5484 29.2966 23.2086 29.7173C22.8352 30.1789 22.2113 30.3572 21.7694 30.7539C21.2088 31.2579 21.0117 32.0369 20.7356 32.7385C20.7228 32.7709 20.7076 32.8058 20.6763 32.8218C20.6222 32.849 20.5609 32.803 20.5192 32.7593C20.4655 32.7028 20.4126 32.6415 20.361 32.5758C20.0785 31.8365 19.8725 31.1534 19.8725 31.1534C19.7852 30.8745 20.8033 30.4498 22.2009 29.1592C22.6921 28.7052 23.1297 28.2548 23.5031 27.8453C23.5636 27.873 23.6185 27.9114 23.6473 27.9695C23.6806 28.0357 23.6742 28.1134 23.667 28.1867Z" fill="#63BABA"/>
<path id="Vector_46" d="M20.9914 6.07004C21.0575 6.1049 21.1317 6.12894 21.2122 6.14497C21.1842 6.15298 21.1565 6.16179 21.1289 6.17021C20.3547 6.41102 18.9896 6.81571 18.5228 5.85688C18.8205 5.68498 19.1739 5.50468 19.6956 5.35001C20.4729 5.11962 20.3868 5.7531 20.9914 6.07004Z" fill="#6D1151"/>
<path id="Vector_47" d="M24.8572 6.96789C24.4345 6.89176 24.0254 6.78397 23.6704 6.55198C23.462 6.41575 23.2797 6.24065 23.0601 6.12365C22.9419 6.06074 22.8185 6.01747 22.6919 5.98942C23.0421 5.9197 23.3847 5.858 23.6696 5.86802C24.2834 5.89005 24.4801 6.37969 24.8572 6.96789Z" fill="#6D1151"/>
<path id="Vector_48" d="M28.2895 9.66525C27.9822 9.52982 27.6328 9.42324 27.3876 9.20768C27.0538 8.91398 26.9572 8.46201 26.9352 8.00403C27.1956 8.01405 27.4396 8.05131 27.6444 8.20036C28.0467 8.49286 28.0775 9.13315 28.2895 9.66525Z" fill="#6D1151"/>
<path id="Vector_49" d="M30.1783 12.291C30.1819 12.3035 30.1859 12.3155 30.1899 12.3275C30.1258 12.289 30.0625 12.2502 30 12.2101C29.4983 11.888 29.0171 11.4228 28.9654 10.829C28.953 10.6851 28.9666 10.5377 28.9518 10.395C29.8906 10.7989 29.9202 11.4592 30.1783 12.291Z" fill="#6D1151"/>
<path id="Vector_50" d="M32.188 16.8163C31.2307 16.3078 30.8088 14.9043 31.4203 13.9839C31.4928 14.0432 31.5689 14.1025 31.6478 14.1634C32.3506 14.7039 32.1655 15.9292 32.188 16.8163Z" fill="#6D1151"/>
<path id="Vector_51" d="M34.2475 20.846C33.8973 20.7058 33.4622 20.616 33.2246 20.3364C32.8672 19.916 33.1048 19.2798 33.3376 18.7797C33.4053 18.6343 33.4686 18.474 33.5139 18.3109C33.6497 18.4355 33.7719 18.5834 33.8657 18.7709C34.2968 19.6336 33.7952 20.0419 34.2475 20.846Z" fill="#6D1151"/>
<path id="Vector_52" d="M37.0263 29.6094C36.838 29.486 36.6745 29.3202 36.5543 29.1314C36.2602 28.671 36.1865 28.1013 36.2125 27.5555C36.2373 27.0262 36.3479 26.4849 36.2073 25.9741C36.0009 25.226 35.3126 24.7223 34.9179 24.0544C34.5381 23.4121 34.4467 22.6067 34.6727 21.8955C34.7015 21.805 34.7356 21.7136 34.7572 21.6215C35.2116 22.3323 35.5574 23.0291 35.5354 23.7258C35.5065 24.619 35.6504 24.9359 36.4281 25.339C37.2058 25.7421 37.0043 26.6063 36.7739 27.2975C36.6168 27.7679 36.8736 28.8654 37.0263 29.6094Z" fill="#6D1151"/>
<path id="Vector_53" d="M17.9254 34.2845C17.5985 34.3346 15.3555 28.1833 15.4196 27.7474C15.4392 27.6152 15.5125 27.4256 15.6251 27.2397C15.8831 26.8134 16.3467 26.4039 16.8396 26.7349C16.9229 26.791 19.3771 30.5834 19.6471 31.0001C20.1035 31.7041 18.2528 34.234 17.9254 34.2845Z" stroke="black" stroke-width="0.356161" stroke-linecap="round" stroke-linejoin="round"/>
<path id="Vector_54" d="M25.7842 28.358C25.323 29.7327 22.0406 34.4347 21.4524 34.3955C20.837 34.3542 19.8725 31.1535 19.8725 31.1535C19.7852 30.8747 20.8033 30.4499 22.2009 29.1593C23.8817 27.6059 24.9343 26.0981 24.9343 26.0981C24.9488 26.1226 24.9632 26.1474 24.9772 26.1727C25.3322 26.8013 25.6656 27.7181 25.7838 28.0575C25.7854 28.1484 25.7854 28.2478 25.7842 28.358Z" stroke="black" stroke-width="0.356161" stroke-linecap="round" stroke-linejoin="round"/>
<path id="Vector_55" d="M15.45 9.66589C15.1719 9.95639 15.3093 10.7682 15.3899 11.162C15.4303 11.3596 15.4756 11.5667 15.607 11.7198C15.7581 11.8961 15.9945 11.9694 16.2197 12.0251C16.7317 12.1517 17.2558 12.2311 17.7827 12.2611C17.9446 12.2703 18.1105 12.2759 18.2599 12.338C18.5685 12.4667 18.7327 12.8016 18.8357 13.1194C18.9387 13.4371 19.0152 13.7809 19.242 14.0261C19.7449 14.5698 20.757 14.4011 21.1961 14.9974C21.4353 15.3223 21.4141 15.7627 21.4029 16.1661C21.3917 16.5696 21.4229 17.0236 21.7238 17.2925C22.0095 17.5481 22.4342 17.5449 22.8173 17.5421C23.2003 17.5393 23.6343 17.5737 23.8779 17.8694C24.1179 18.1603 24.075 18.5879 23.9777 18.9521C23.8803 19.3163 23.7393 19.6925 23.8258 20.0596C23.8434 20.1345 23.914 20.2246 23.9785 20.1826" stroke="black" stroke-width="0.356161" stroke-linecap="round" stroke-linejoin="round"/>
<path id="Vector_56" d="M15.3381 9.79529C14.7944 10.3671 14.6461 11.2802 14.9807 11.995C15.3156 12.7098 16.1118 13.1802 16.8991 13.1286C17.3451 13.0993 17.8536 12.9362 18.1977 13.2215C18.463 13.4415 18.495 13.8305 18.6517 14.1375C18.8593 14.5442 19.292 14.7986 19.7372 14.9C20.1823 15.0013 20.6459 14.9717 21.1015 14.9412" stroke="black" stroke-width="0.356161" stroke-linecap="round" stroke-linejoin="round"/>
<path id="Vector_57" d="M16.8406 26.7343C16.3478 26.4033 15.8842 26.8128 15.6262 27.2392C15.6262 27.2392 15.5781 27.2063 15.5144 27.2223C15.2231 27.1967 14.9045 27.3121 14.5748 27.5257C14.5624 27.3738 14.5547 27.2215 14.5495 27.0705C14.5355 26.6714 14.5335 26.2643 14.4069 25.8853C14.2803 25.5066 14.0014 25.1532 13.6143 25.0539C13.2337 24.9561 12.8394 25.1172 12.4472 25.1436C11.5753 25.2017 10.7679 24.5558 10.4145 23.7568C10.0611 22.9579 10.0843 22.0419 10.2266 21.1797C10.4498 19.8226 10.9638 18.5664 11.6682 17.3908C11.6843 17.364 11.7007 17.3367 11.7167 17.3091C11.2676 19.3546 11.425 21.3055 12.9392 22.5147C14.0423 23.3958 15.5232 23.2728 16.95 22.7688C16.95 22.7688 16.9817 25.4289 16.8406 26.7343Z" fill="#210017"/>
<path id="Vector_58" d="M17.2686 10.7366C17.5631 11.0443 17.6857 11.4662 17.8312 11.8741C17.3452 11.792 16.8315 11.7523 16.4689 11.5712C16.162 11.4181 15.8887 10.9494 15.6884 10.507C16.1904 10.2494 16.872 10.3215 17.2686 10.7366Z" fill="#6D1151"/>
<path id="Vector_59" d="M21.9694 15.1012C21.4862 14.7117 20.2401 14.4585 19.8963 14.1636C19.7116 14.0049 19.5934 13.6715 19.4612 13.3149C19.7224 13.3883 19.9885 13.4544 20.2373 13.5477C20.981 13.8262 21.6012 14.3992 21.9694 15.1012Z" fill="#6D1151"/>
<path id="Vector_60" d="M25.824 28.1584C25.812 28.0943 25.798 28.0302 25.7819 27.9657C25.7074 27.6652 25.5912 27.3639 25.4518 27.0649C25.3111 26.7632 25.1469 26.4643 24.9774 26.1718C24.9633 26.1466 24.9489 26.1217 24.9345 26.0973C24.7794 25.8309 24.6216 25.5704 24.4753 25.3184C23.9568 24.4253 24.8107 23.3546 24.8684 22.3854C24.9257 21.4165 24.507 21.205 23.9308 20.5715C23.355 19.938 24.2742 18.9155 23.9861 18.1666C23.698 17.4177 23.0645 17.7347 22.5172 17.2739C22.0828 16.9081 22.2291 16.2157 22.2075 15.6864C22.2563 15.8515 22.2916 16.0206 22.312 16.1921C22.3273 16.3211 22.3357 16.4545 22.395 16.5699C22.5645 16.9001 23.0172 16.9105 23.3791 16.9926C24.2946 17.2014 24.9249 18.2456 24.6837 19.1527C24.5699 19.5802 24.2946 19.9697 24.2886 20.412C24.2874 20.5062 24.3002 20.6044 24.3507 20.6837C24.4477 20.8348 24.6456 20.874 24.8127 20.9405C25.5135 21.2194 25.7695 22.1081 25.6726 22.8562C25.5752 23.6043 25.2262 24.2986 25.0948 25.0415C25.0635 25.2178 25.0451 25.4005 25.0844 25.5752C25.1408 25.8252 25.3079 26.0324 25.4382 26.2528C25.7775 26.8281 25.8605 27.4853 25.824 28.1584Z" fill="#6D1151"/>
<path id="Vector_61" d="M37.0995 29.9846C36.9865 29.2998 36.5886 27.8558 36.7753 27.2968C37.0057 26.6057 37.2073 25.7414 36.4295 25.3383C35.6518 24.9352 35.508 24.6183 35.5368 23.7252C35.5653 22.8324 34.9895 21.9397 34.3556 21.0178C33.7221 20.0962 34.3268 19.6931 33.866 18.7711C33.4052 17.8496 32.2532 17.8784 32.1955 16.9857C32.1378 16.0926 32.3971 14.7391 31.6482 14.1629C30.8993 13.5867 30.4385 13.1259 30.1793 12.2909C29.9201 11.4555 29.8912 10.7932 28.9408 10.3897C27.9904 9.98661 28.2785 8.66155 27.6446 8.20077C27.0111 7.73999 26.003 8.34501 25.283 7.53844C24.563 6.73187 24.4764 5.89685 23.6702 5.868C22.8637 5.83915 21.5963 6.38648 20.9913 6.06955C20.3867 5.75261 20.4728 5.11913 19.6955 5.34952C18.9178 5.57991 18.5143 5.868 18.1112 6.09839C18.1112 6.09839 16.8887 4.79137 16.0825 5.30024C15.276 5.8087 14.4009 6.68379 14.0727 6.75671C13.745 6.82964 12.6511 6.68379 12.25 7.12133C11.8489 7.55888 11.5937 8.77294 11.1201 9.05903C10.6461 9.34512 9.33346 10.2567 9.15115 10.7307C8.96884 11.2043 9.15115 11.8241 8.89592 12.4804C8.64069 13.1368 7.83892 14.2667 7.62015 14.8865C7.40138 15.5064 8.20354 16.2721 7.98477 16.9645C7.766 17.6572 7.10968 18.7511 7.07322 19.2616C7.03676 19.7716 7.36492 20.2821 7.21907 21.4489C7.07322 22.6153 6.12521 23.2351 6.01582 23.9279C5.90644 24.6207 6.85445 25.6777 6.59922 26.3705C6.59922 26.3705 5.57828 26.9539 5.4693 27.5008C5.37033 27.9956 6.239 29.0206 6.16047 29.6156C8.39146 28.9745 11.6622 28.4215 13.9665 28.0133C14.5083 27.5048 15.0468 27.1814 15.5148 27.2227C15.5785 27.2067 15.6266 27.2395 15.6266 27.2395C15.8846 26.8132 16.3482 26.4037 16.841 26.7347C16.9821 25.4293 16.9504 22.7691 16.9504 22.7691C15.5236 23.2732 14.0427 23.3962 12.9396 22.5151C9.1207 19.4651 13.9309 11.6963 15.3445 9.59193C15.3545 9.62599 15.8421 11.2572 16.4696 11.5709C17.1031 11.8874 18.1977 11.7724 18.8024 12.2044C19.4074 12.6363 19.4935 13.8171 19.897 14.1629C20.3001 14.5087 21.9421 14.7968 22.1436 15.3149C22.3452 15.8333 21.9705 16.8126 22.5179 17.2738C23.0652 17.7346 23.6987 17.4176 23.9868 18.1665C24.2749 18.9154 23.3557 19.9379 23.9315 20.5714C24.5077 21.2049 24.9264 21.4164 24.8691 22.3853C24.8114 23.3545 23.9575 24.4252 24.476 25.3183C24.6223 25.5703 24.7801 25.8307 24.9352 26.0972C24.9496 26.1216 24.964 26.1465 24.9781 26.1717C25.1475 26.4642 25.3118 26.7631 25.4525 27.0648C25.5919 27.3638 25.7081 27.6651 25.7826 27.9656C25.8015 28.0405 25.8171 28.115 25.8303 28.1896C26.003 29.1688 25.5422 30.2923 26.3199 30.7243C27.0977 31.1562 28.2208 30.0042 28.8547 30.0331C28.8579 30.0331 28.8611 30.0335 28.8643 30.0339C29.4961 30.0667 30.2699 30.5516 31.0436 30.5516C31.8173 30.5516 33.2613 30.3212 33.5779 30.465C33.8948 30.6093 34.9606 31.7901 35.7672 31.3581C36.5734 30.9258 37.0342 30.6093 37.1207 30.3212C37.1371 30.2659 37.1263 30.1465 37.0995 29.9846ZM25.5518 27.2395C25.5518 27.2395 25.5971 27.181 25.6476 27.2239C25.6151 27.2275 25.5835 27.2323 25.5518 27.2395Z" stroke="black" stroke-width="0.356161" stroke-linecap="round" stroke-linejoin="round"/>
<g id="Group_2">
<path id="Vector_62" d="M15.5286 13.8599H19.2208V14.557C19.2208 15.5567 18.4095 16.3681 17.4098 16.3681H17.34C16.3403 16.3681 15.529 15.5567 15.529 14.557V13.8599H15.5286Z" fill="#E86F3A" stroke="black" stroke-width="0.356161" stroke-linecap="round" stroke-linejoin="round"/>
<path id="Vector_63" d="M10.5872 13.8599H14.2794V14.557C14.2794 15.5567 13.4681 16.3681 12.4684 16.3681H12.3986C11.3989 16.3681 10.5876 15.5567 10.5876 14.557V13.8599H10.5872Z" fill="#E86F3A" stroke="black" stroke-width="0.356161" stroke-linecap="round" stroke-linejoin="round"/>
<path id="Vector_64" d="M14.2802 14.5571C14.2802 14.5571 14.6884 13.9112 15.5295 14.5571" stroke="black" stroke-width="0.356161" stroke-linecap="round" stroke-linejoin="round"/>
</g>
</g>
</g>
</g>
<defs>
<clipPath id="clip0_2423_984">
<rect width="40" height="40" rx="20" fill="white"/>
</clipPath>
</defs>
</svg>
